M48
;Layer_Color=9474304
;FILE_FORMAT=4:4
METRIC,LZ
;TYPE=PLATED
T01F00S00C0.6500
T02F00S00C0.7000
T03F00S00C0.8000
T04F00S00C0.8890
T05F00S00C0.9000
T06F00S00C1.0000
T08F00S00C1.3000
;TYPE=NON_PLATED
T09F00S00C1.1000
T10F00S00C3.2000
%
T01
X0059Y-008485
X00631
Y-007829
X0059
X00683Y-006288
Y-005632
Y-005188
X00625Y-005158
X00764Y-005178
X00765Y-005612
X00805
Y-006268
X00765
X00874Y-006902
X0092Y-006912
Y-007568
X00874Y-007558
X008582Y-008
X009238
X00922Y-005158
X00502Y-005128
X00457
X00373Y-005652
Y-006308
X00317Y-006502
Y-007158
X00313Y-00753
X003102Y-00808
X003758
X003786Y-00753
X0011938Y-0069822
X0005588Y-0069695
Y-0074946
Y-0081506
Y-0063135
X0005163Y-0058287
X0011723
X0011938Y-0063262
X001128Y-00498
X000472
X000544Y-00425
X0012
X00457Y-004472
X00502
X00625Y-004502
X00683Y-004532
X00764Y-004522
X00822Y-003836
Y-00318
X00922Y-004502
X00666Y-001998
Y-001342
T02
X00545Y-0084825
Y-0082325
X00825Y-0076013
Y-0068387
X0080387Y-00501
X0088013
X005184Y-0059405
X00493
X004676
X00315Y-005965
Y-005715
X0027432Y-0060827
X0024932
X00374Y-006775
Y-007025
X0025106Y-0080831
X0022606
X0012446Y-0081481
Y-0078981
X0080087Y-00451
X0087713
X006205Y-00198
X005955
T03
X00599Y-00723
Y-00703
X00673Y-007
Y-0072
X00767Y-00722
Y-00702
X00475Y-0079425
Y-0082925
X0018542Y-0060049
Y-0058049
X00192Y-00486
Y-00451
X005593Y-0046465
X00572
X005847
X00579Y-00264
X00599
X00599793Y-0010425
Y-0006925
X00697793Y-000785
Y-000585
T04
X00077Y-00228
T05
X005719Y-006281
Y-006027
Y-005773
Y-005519
X006481
Y-005773
Y-006027
Y-006281
X008429Y-006411
X008683
X008937
X009191
Y-005649
X008937
X008683
X008429
X005364Y-006678
X00511
X004856
X004602
Y-00744
X004856
X00511
X005364
X002571Y-007471
X002317
X002063
X001809
Y-006709
X002063
X002317
X002571
X002878Y-00508
Y-004826
X00364
Y-00508
Y-004572
Y-004318
X002878
Y-004572
X004609Y-002211
X004863
X005117
X005371
Y-001449
X005117
X004863
X004609
T06
X0068175Y-008225
Y-007975
X0002Y-00376
Y-00093
X00815Y-00109
Y-00134
X00696Y-00263
X00671
X00901Y-00317
X00926
X00902Y-00029
X00502793Y-0006775
X00477793
X00139Y-0004
T08
X0024Y-00196
X0036
X00917Y-00214
Y-00164
Y-00114
X0036Y-00074
X003Y-00054
X0024Y-00074
T09
X0004Y-00315
X0011
X00109Y-00161
X00039
T10
X00946Y-00865
X00047Y-00862
X00959Y-00039
X00047Y-00047
M30
