G04*
G04 #@! TF.GenerationSoftware,Altium Limited,Altium Designer,24.2.2 (26)*
G04*
G04 Layer_Color=128*
%FSLAX44Y44*%
%MOMM*%
G71*
G04*
G04 #@! TF.SameCoordinates,0EA0B31A-DED8-4D88-AA7A-5696349AFEB5*
G04*
G04*
G04 #@! TF.FilePolarity,Positive*
G04*
G01*
G75*
%ADD14C,0.1270*%
D14*
X15000Y-93000D02*
X25000D01*
X20000Y-98000D02*
Y-88000D01*
X595000Y-264000D02*
X603000D01*
X599000Y-268000D02*
Y-260000D01*
X575000Y-264000D02*
X583000D01*
X579000Y-268000D02*
Y-260000D01*
X15000Y-376000D02*
X25000D01*
X20000Y-381000D02*
Y-371000D01*
X134000Y-40000D02*
X144000D01*
X139000Y-45000D02*
Y-35000D01*
X370500Y-677500D02*
X377500D01*
X374000Y-681000D02*
Y-674000D01*
X370500Y-702500D02*
X377500D01*
X374000Y-706000D02*
Y-699000D01*
X34500Y-315000D02*
X45500D01*
X40000Y-320500D02*
Y-309500D01*
X104500Y-315000D02*
X115500D01*
X110000Y-320500D02*
Y-309500D01*
X897000Y-29000D02*
X907000D01*
X902000Y-34000D02*
Y-24000D01*
X33500Y-161000D02*
X44500D01*
X39000Y-166500D02*
Y-155500D01*
X103500Y-161000D02*
X114500D01*
X109000Y-166500D02*
Y-155500D01*
X116750Y-425000D02*
X123250D01*
X120000Y-428250D02*
Y-421750D01*
X51150Y-425000D02*
X57650D01*
X54400Y-428250D02*
Y-421750D01*
X818750Y-383600D02*
X825250D01*
X822000Y-386850D02*
Y-380350D01*
X810000Y-134000D02*
X820000D01*
X815000Y-139000D02*
Y-129000D01*
X863800Y-564900D02*
X872800D01*
X868300Y-569400D02*
Y-560400D01*
X761750Y-561200D02*
X768250D01*
X765000Y-564450D02*
Y-557950D01*
X662750Y-134200D02*
X669250D01*
X666000Y-137450D02*
Y-130950D01*
X507200Y-144900D02*
X516200D01*
X511700Y-149400D02*
Y-140400D01*
X555300Y-464650D02*
X563300D01*
X559300Y-468650D02*
Y-460650D01*
X838400Y-641100D02*
X847400D01*
X842900Y-645600D02*
Y-636600D01*
X679750Y-628800D02*
X686250D01*
X683000Y-632050D02*
Y-625550D01*
X763000Y-722000D02*
X771000D01*
X767000Y-726000D02*
Y-718000D01*
X627750Y-782900D02*
X634250D01*
X631000Y-786150D02*
Y-779650D01*
X595000Y-723000D02*
X603000D01*
X599000Y-727000D02*
Y-719000D01*
X567400Y-628100D02*
X576400D01*
X571900Y-632600D02*
Y-623600D01*
X586750Y-848500D02*
X593250D01*
X590000Y-851750D02*
Y-845250D01*
X497793Y-67750D02*
X507793D01*
X502793Y-72750D02*
Y-62750D01*
X456400Y-144900D02*
X465400D01*
X460900Y-149400D02*
Y-140400D01*
X369750Y-565200D02*
X376250D01*
X373000Y-568450D02*
Y-561950D01*
X43950Y-498000D02*
X50450D01*
X47200Y-501250D02*
Y-494750D01*
X464100Y-594050D02*
X471100D01*
X467600Y-597550D02*
Y-590550D01*
X181420Y-600490D02*
X189420D01*
X185420Y-604490D02*
Y-596490D01*
X506500Y-667800D02*
X515500D01*
X511000Y-672300D02*
Y-663300D01*
X455700Y-667800D02*
X464700D01*
X460200Y-672300D02*
Y-663300D01*
X176400Y-670900D02*
X185400D01*
X180900Y-675400D02*
Y-666400D01*
X113980Y-582870D02*
X120480D01*
X117230Y-586120D02*
Y-579620D01*
X120960Y-789810D02*
X127960D01*
X124460Y-793310D02*
Y-786310D01*
X921000Y-317000D02*
X931000D01*
X926000Y-322000D02*
Y-312000D01*
X896000Y-317000D02*
X906000D01*
X901000Y-322000D02*
Y-312000D01*
X818750Y-318000D02*
X825250D01*
X822000Y-321250D02*
Y-314750D01*
X854950Y-800000D02*
X861450D01*
X858200Y-803250D02*
Y-796750D01*
X920550Y-800000D02*
X927050D01*
X923800Y-803250D02*
Y-796750D01*
X821500Y-683870D02*
X828500D01*
X825000Y-687370D02*
Y-680370D01*
X821500Y-760130D02*
X828500D01*
X825000Y-763630D02*
Y-756630D01*
X916750Y-756800D02*
X923250D01*
X920000Y-760050D02*
Y-753550D01*
X916750Y-691200D02*
X923250D01*
X920000Y-694450D02*
Y-687950D01*
X679750Y-563200D02*
X686250D01*
X683000Y-566450D02*
Y-559950D01*
X679750Y-453200D02*
X686250D01*
X683000Y-456450D02*
Y-449950D01*
X679750Y-518800D02*
X686250D01*
X683000Y-522050D02*
Y-515550D01*
X621750Y-450200D02*
X628250D01*
X625000Y-453450D02*
Y-446950D01*
X621750Y-515800D02*
X628250D01*
X625000Y-519050D02*
Y-512550D01*
X568000Y-464650D02*
X576000D01*
X572000Y-468650D02*
Y-460650D01*
X580700Y-464650D02*
X588700D01*
X584700Y-468650D02*
Y-460650D01*
X643600Y-628100D02*
X652600D01*
X648100Y-632600D02*
Y-623600D01*
X643600Y-602700D02*
X652600D01*
X648100Y-607200D02*
Y-598200D01*
X643600Y-577300D02*
X652600D01*
X648100Y-581800D02*
Y-572800D01*
X643600Y-551900D02*
X652600D01*
X648100Y-556400D02*
Y-547400D01*
X567400Y-602700D02*
X576400D01*
X571900Y-607200D02*
Y-598200D01*
X567400Y-577300D02*
X576400D01*
X571900Y-581800D02*
Y-572800D01*
X567400Y-551900D02*
X576400D01*
X571900Y-556400D02*
Y-547400D01*
X797370Y-451000D02*
X804370D01*
X800870Y-454500D02*
Y-447500D01*
X873630Y-451000D02*
X880630D01*
X877130Y-454500D02*
Y-447500D01*
X876630Y-501000D02*
X883630D01*
X880130Y-504500D02*
Y-497500D01*
X800370Y-501000D02*
X807370D01*
X803870Y-504500D02*
Y-497500D01*
X676750Y-797500D02*
X686750D01*
X681750Y-802500D02*
Y-792500D01*
X676750Y-822500D02*
X686750D01*
X681750Y-827500D02*
Y-817500D01*
X669000Y-720000D02*
X677000D01*
X673000Y-724000D02*
Y-716000D01*
X669000Y-700000D02*
X677000D01*
X673000Y-704000D02*
Y-696000D01*
X761750Y-626800D02*
X768250D01*
X765000Y-630050D02*
Y-623550D01*
X914600Y-564900D02*
X923600D01*
X919100Y-569400D02*
Y-560400D01*
X889200Y-564900D02*
X898200D01*
X893700Y-569400D02*
Y-560400D01*
X838400Y-564900D02*
X847400D01*
X842900Y-569400D02*
Y-560400D01*
X914600Y-641100D02*
X923600D01*
X919100Y-645600D02*
Y-636600D01*
X889200Y-641100D02*
X898200D01*
X893700Y-645600D02*
Y-636600D01*
X863800Y-641100D02*
X872800D01*
X868300Y-645600D02*
Y-636600D01*
X870750Y-755800D02*
X877250D01*
X874000Y-759050D02*
Y-752550D01*
X870750Y-690200D02*
X877250D01*
X874000Y-693450D02*
Y-686950D01*
X763000Y-702000D02*
X771000D01*
X767000Y-706000D02*
Y-698000D01*
X359500Y-508000D02*
X368500D01*
X364000Y-512500D02*
Y-503500D01*
X359500Y-482600D02*
X368500D01*
X364000Y-487100D02*
Y-478100D01*
X359500Y-457200D02*
X368500D01*
X364000Y-461700D02*
Y-452700D01*
X359500Y-431800D02*
X368500D01*
X364000Y-436300D02*
Y-427300D01*
X283300Y-508000D02*
X292300D01*
X287800Y-512500D02*
Y-503500D01*
X283300Y-482600D02*
X292300D01*
X287800Y-487100D02*
Y-478100D01*
X283300Y-457200D02*
X292300D01*
X287800Y-461700D02*
Y-452700D01*
X283300Y-431800D02*
X292300D01*
X287800Y-436300D02*
Y-427300D01*
X31000Y-862000D02*
X63000D01*
X47000Y-878000D02*
Y-846000D01*
X31000Y-47000D02*
X63000D01*
X47000Y-63000D02*
Y-31000D01*
X943000Y-39000D02*
X975000D01*
X959000Y-55000D02*
Y-23000D01*
X693792Y-58500D02*
X701793D01*
X697793Y-62500D02*
Y-54500D01*
X693792Y-78500D02*
X701793D01*
X697793Y-82500D02*
Y-74500D01*
X453750Y-447200D02*
X460250D01*
X457000Y-450450D02*
Y-443950D01*
X453750Y-512800D02*
X460250D01*
X457000Y-516050D02*
Y-509550D01*
X455700Y-744000D02*
X464700D01*
X460200Y-748500D02*
Y-739500D01*
X481100Y-744000D02*
X490100D01*
X485600Y-748500D02*
Y-739500D01*
X506500Y-744000D02*
X515500D01*
X511000Y-748500D02*
Y-739500D01*
X531900Y-744000D02*
X540900D01*
X536400Y-748500D02*
Y-739500D01*
X481100Y-667800D02*
X490100D01*
X485600Y-672300D02*
Y-663300D01*
X531900Y-667800D02*
X540900D01*
X536400Y-672300D02*
Y-663300D01*
X801750Y-561200D02*
X808250D01*
X805000Y-564450D02*
Y-557950D01*
X801750Y-626800D02*
X808250D01*
X805000Y-630050D02*
Y-623550D01*
X471000Y-794250D02*
X479000D01*
X475000Y-798250D02*
Y-790250D01*
X471000Y-829250D02*
X479000D01*
X475000Y-833250D02*
Y-825250D01*
X586750Y-782900D02*
X593250D01*
X590000Y-786150D02*
Y-779650D01*
X595000Y-703000D02*
X603000D01*
X599000Y-707000D02*
Y-699000D01*
X541500Y-823250D02*
X548500D01*
X545000Y-826750D02*
Y-819750D01*
X541500Y-848250D02*
X548500D01*
X545000Y-851750D02*
Y-844750D01*
X498750Y-512800D02*
X505250D01*
X502000Y-516050D02*
Y-509550D01*
X498750Y-447200D02*
X505250D01*
X502000Y-450450D02*
Y-443950D01*
X456400Y-221100D02*
X465400D01*
X460900Y-225600D02*
Y-216600D01*
X481800Y-221100D02*
X490800D01*
X486300Y-225600D02*
Y-216600D01*
X507200Y-221100D02*
X516200D01*
X511700Y-225600D02*
Y-216600D01*
X532600Y-221100D02*
X541600D01*
X537100Y-225600D02*
Y-216600D01*
X481800Y-144900D02*
X490800D01*
X486300Y-149400D02*
Y-140400D01*
X532600Y-144900D02*
X541600D01*
X537100Y-149400D02*
Y-140400D01*
X309750Y-753000D02*
X316250D01*
X313000Y-756250D02*
Y-749750D01*
X375350Y-753000D02*
X381850D01*
X378600Y-756250D02*
Y-749750D01*
X372550Y-808000D02*
X379050D01*
X375800Y-811250D02*
Y-804750D01*
X306950Y-808000D02*
X313450D01*
X310200Y-811250D02*
Y-804750D01*
X369750Y-630800D02*
X376250D01*
X373000Y-634050D02*
Y-627550D01*
X52630Y-696950D02*
X59130D01*
X55880Y-700200D02*
Y-693700D01*
X52630Y-631350D02*
X59130D01*
X55880Y-634600D02*
Y-628100D01*
X595793Y-104250D02*
X603792D01*
X599793Y-108250D02*
Y-100250D01*
X595793Y-69250D02*
X603792D01*
X599793Y-73250D02*
Y-65250D01*
X188000Y-451000D02*
X196000D01*
X192000Y-455000D02*
Y-447000D01*
X188000Y-486000D02*
X196000D01*
X192000Y-490000D02*
Y-482000D01*
X930000Y-865000D02*
X962000D01*
X946000Y-881000D02*
Y-849000D01*
X176400Y-747100D02*
X185400D01*
X180900Y-751600D02*
Y-742600D01*
X201800Y-747100D02*
X210800D01*
X206300Y-751600D02*
Y-742600D01*
X227200Y-747100D02*
X236200D01*
X231700Y-751600D02*
Y-742600D01*
X252600Y-747100D02*
X261600D01*
X257100Y-751600D02*
Y-742600D01*
X201800Y-670900D02*
X210800D01*
X206300Y-675400D02*
Y-666400D01*
X227200Y-670900D02*
X236200D01*
X231700Y-675400D02*
Y-666400D01*
X252600Y-670900D02*
X261600D01*
X257100Y-675400D02*
Y-666400D01*
X120960Y-814810D02*
X127960D01*
X124460Y-818310D02*
Y-811310D01*
X270820Y-608270D02*
X277820D01*
X274320Y-611770D02*
Y-604770D01*
X245820Y-608270D02*
X252820D01*
X249320Y-611770D02*
Y-604770D01*
X311500Y-571500D02*
X318500D01*
X315000Y-575000D02*
Y-568000D01*
X311500Y-596500D02*
X318500D01*
X315000Y-600000D02*
Y-593000D01*
X910500Y-114000D02*
X923500D01*
X917000Y-120500D02*
Y-107500D01*
X910500Y-214000D02*
X923500D01*
X917000Y-220500D02*
Y-207500D01*
X910500Y-164000D02*
X923500D01*
X917000Y-170500D02*
Y-157500D01*
X109550Y-498000D02*
X116050D01*
X112800Y-501250D02*
Y-494750D01*
X293500Y-54000D02*
X306500D01*
X300000Y-60500D02*
Y-47500D01*
X233500Y-74000D02*
X246500D01*
X240000Y-80500D02*
Y-67500D01*
X233500Y-196000D02*
X246500D01*
X240000Y-202500D02*
Y-189500D01*
X353500Y-196000D02*
X366500D01*
X360000Y-202500D02*
Y-189500D01*
X353500Y-74000D02*
X366500D01*
X360000Y-80500D02*
Y-67500D01*
X627750Y-848500D02*
X634250D01*
X631000Y-851750D02*
Y-845250D01*
X472793Y-67750D02*
X482793D01*
X477793Y-72750D02*
Y-62750D01*
X666000Y-263000D02*
X676000D01*
X671000Y-268000D02*
Y-258000D01*
X691000Y-263000D02*
X701000D01*
X696000Y-268000D02*
Y-258000D01*
X247560Y-808310D02*
X254560D01*
X251060Y-811810D02*
Y-804810D01*
X222560Y-808310D02*
X229560D01*
X226060Y-811810D02*
Y-804810D01*
X662750Y-199800D02*
X669250D01*
X666000Y-203050D02*
Y-196550D01*
X181420Y-580490D02*
X189420D01*
X185420Y-584490D02*
Y-576490D01*
X48380Y-582870D02*
X54880D01*
X51630Y-586120D02*
Y-579620D01*
X617000Y-198000D02*
X624000D01*
X620500Y-201500D02*
Y-194500D01*
X592000Y-198000D02*
X599000D01*
X595500Y-201500D02*
Y-194500D01*
X760750Y-452200D02*
X767250D01*
X764000Y-455450D02*
Y-448950D01*
X760750Y-517800D02*
X767250D01*
X764000Y-521050D02*
Y-514550D01*
X918750Y-515800D02*
X925250D01*
X922000Y-519050D02*
Y-512550D01*
X918750Y-450200D02*
X925250D01*
X922000Y-453450D02*
Y-446950D01*
X810000Y-109000D02*
X820000D01*
X815000Y-114000D02*
Y-104000D01*
X52630Y-749460D02*
X59130D01*
X55880Y-752710D02*
Y-746210D01*
X52630Y-815060D02*
X59130D01*
X55880Y-818310D02*
Y-811810D01*
X116130Y-632620D02*
X122630D01*
X119380Y-635870D02*
Y-629370D01*
X116130Y-698220D02*
X122630D01*
X119380Y-701470D02*
Y-694970D01*
X489500Y-594050D02*
X496500D01*
X493000Y-597550D02*
Y-590550D01*
X514900Y-594050D02*
X521900D01*
X518400Y-597550D02*
Y-590550D01*
X313750Y-715800D02*
X320250D01*
X317000Y-719050D02*
Y-712550D01*
X313750Y-650200D02*
X320250D01*
X317000Y-653450D02*
Y-646950D01*
X72555Y-228000D02*
X81445D01*
X77000Y-232445D02*
Y-223555D01*
M02*
