G04*
G04 #@! TF.GenerationSoftware,Altium Limited,Altium Designer,24.2.2 (26)*
G04*
G04 Layer_Color=16711935*
%FSLAX44Y44*%
%MOMM*%
G71*
G04*
G04 #@! TF.SameCoordinates,0EA0B31A-DED8-4D88-AA7A-5696349AFEB5*
G04*
G04*
G04 #@! TF.FilePolarity,Positive*
G04*
G01*
G75*
%ADD59C,0.1778*%
D59*
X594760Y-584923D02*
Y-593387D01*
X596453Y-595080D01*
X599838D01*
X601531Y-593387D01*
Y-584923D01*
X611688D02*
X604917D01*
Y-590002D01*
X608302Y-588309D01*
X609995D01*
X611688Y-590002D01*
Y-593387D01*
X609995Y-595080D01*
X606609D01*
X604917Y-593387D01*
X886077Y-587760D02*
X877613D01*
X875920Y-589453D01*
Y-592838D01*
X877613Y-594531D01*
X886077D01*
X875920Y-602995D02*
X886077D01*
X880998Y-597917D01*
Y-604688D01*
X310660Y-464823D02*
Y-473287D01*
X312353Y-474980D01*
X315738D01*
X317431Y-473287D01*
Y-464823D01*
X327588Y-474980D02*
X320817D01*
X327588Y-468209D01*
Y-466516D01*
X325895Y-464823D01*
X322509D01*
X320817Y-466516D01*
X224077Y-693760D02*
X215613D01*
X213920Y-695453D01*
Y-698838D01*
X215613Y-700531D01*
X224077D01*
X213920Y-703917D02*
Y-707302D01*
Y-705610D01*
X224077D01*
X222384Y-703917D01*
M02*
