G04*
G04 #@! TF.GenerationSoftware,Altium Limited,Altium Designer,24.2.2 (26)*
G04*
G04 Layer_Color=255*
%FSLAX44Y44*%
%MOMM*%
G71*
G04*
G04 #@! TF.SameCoordinates,0EA0B31A-DED8-4D88-AA7A-5696349AFEB5*
G04*
G04*
G04 #@! TF.FilePolarity,Positive*
G04*
G01*
G75*
%ADD21C,1.5500*%
%ADD24C,2.0000*%
%ADD25C,1.2000*%
%ADD26R,1.2000X1.2000*%
%ADD28C,1.1500*%
%ADD29R,1.1500X1.1500*%
%ADD30R,1.1500X1.1500*%
%ADD32R,1.5500X1.5500*%
%ADD34R,1.2000X1.2000*%
%ADD35R,1.5500X1.5500*%
%ADD39C,1.3000*%
%ADD40R,1.3000X1.3000*%
%ADD48R,1.3000X1.3000*%
%ADD49C,1.1000*%
%ADD50C,1.5000*%
%ADD51R,1.0500X1.0500*%
%ADD52C,1.0500*%
%ADD53R,1.5000X1.5000*%
%ADD54R,1.5000X1.5000*%
%ADD55C,3.2000*%
%ADD56C,1.9500*%
G04:AMPARAMS|DCode=57|XSize=1.95mm|YSize=1.95mm|CornerRadius=0.4875mm|HoleSize=0mm|Usage=FLASHONLY|Rotation=90.000|XOffset=0mm|YOffset=0mm|HoleType=Round|Shape=RoundedRectangle|*
%AMROUNDEDRECTD57*
21,1,1.9500,0.9750,0,0,90.0*
21,1,0.9750,1.9500,0,0,90.0*
1,1,0.9750,0.4875,0.4875*
1,1,0.9750,0.4875,-0.4875*
1,1,0.9750,-0.4875,-0.4875*
1,1,0.9750,-0.4875,0.4875*
%
%ADD57ROUNDEDRECTD57*%
D21*
X20000Y-93000D02*
D03*
Y-376000D02*
D03*
X815000Y-134000D02*
D03*
X502793Y-67750D02*
D03*
X926000Y-317000D02*
D03*
X681750Y-797500D02*
D03*
X696000Y-263000D02*
D03*
D24*
X139000Y-40000D02*
D03*
X902000Y-29000D02*
D03*
D25*
X374000Y-677500D02*
D03*
X825000Y-683870D02*
D03*
X800870Y-451000D02*
D03*
X880130Y-501000D02*
D03*
X545000Y-848250D02*
D03*
X124460Y-814810D02*
D03*
X249320Y-608270D02*
D03*
X315000Y-596500D02*
D03*
X226060Y-808310D02*
D03*
X595500Y-198000D02*
D03*
X493000Y-594050D02*
D03*
X518400D02*
D03*
D26*
X374000Y-702500D02*
D03*
X467600Y-594050D02*
D03*
X124460Y-789810D02*
D03*
X825000Y-760130D02*
D03*
X545000Y-823250D02*
D03*
X315000Y-571500D02*
D03*
D28*
X120000Y-425000D02*
D03*
X765000Y-561200D02*
D03*
X47200Y-498000D02*
D03*
X117230Y-582870D02*
D03*
X822000Y-318000D02*
D03*
X858200Y-800000D02*
D03*
X920000Y-756800D02*
D03*
X683000Y-563200D02*
D03*
Y-518800D02*
D03*
X625000Y-515800D02*
D03*
X874000Y-755800D02*
D03*
X457000Y-512800D02*
D03*
X805000Y-626800D02*
D03*
X590000Y-782900D02*
D03*
X502000Y-447200D02*
D03*
X313000Y-753000D02*
D03*
X310200Y-808000D02*
D03*
X373000Y-630800D02*
D03*
X55880Y-631350D02*
D03*
X631000Y-848500D02*
D03*
X666000Y-199800D02*
D03*
X764000Y-517800D02*
D03*
X922000Y-450200D02*
D03*
X55880Y-815060D02*
D03*
X119380Y-632620D02*
D03*
X317000Y-650200D02*
D03*
D29*
X54400Y-425000D02*
D03*
X923800Y-800000D02*
D03*
X378600Y-753000D02*
D03*
X375800Y-808000D02*
D03*
X112800Y-498000D02*
D03*
X51630Y-582870D02*
D03*
D30*
X822000Y-383600D02*
D03*
X666000Y-134200D02*
D03*
X683000Y-628800D02*
D03*
X631000Y-782900D02*
D03*
X590000Y-848500D02*
D03*
X373000Y-565200D02*
D03*
X920000Y-691200D02*
D03*
X683000Y-453200D02*
D03*
X625000Y-450200D02*
D03*
X765000Y-626800D02*
D03*
X874000Y-690200D02*
D03*
X457000Y-447200D02*
D03*
X805000Y-561200D02*
D03*
X502000Y-512800D02*
D03*
X55880Y-696950D02*
D03*
X764000Y-452200D02*
D03*
X922000Y-515800D02*
D03*
X55880Y-749460D02*
D03*
X119380Y-698220D02*
D03*
X317000Y-715800D02*
D03*
D32*
X901000Y-317000D02*
D03*
X477793Y-67750D02*
D03*
X671000Y-263000D02*
D03*
D34*
X877130Y-451000D02*
D03*
X803870Y-501000D02*
D03*
X274320Y-608270D02*
D03*
X251060Y-808310D02*
D03*
X620500Y-198000D02*
D03*
D35*
X681750Y-822500D02*
D03*
X815000Y-109000D02*
D03*
D39*
X599000Y-264000D02*
D03*
X767000Y-722000D02*
D03*
X599000Y-723000D02*
D03*
X185420Y-600490D02*
D03*
X673000Y-720000D02*
D03*
X697793Y-78500D02*
D03*
X475000Y-794250D02*
D03*
X599793Y-104250D02*
D03*
X192000Y-451000D02*
D03*
D40*
X673000Y-700000D02*
D03*
X767000Y-702000D02*
D03*
X697793Y-58500D02*
D03*
X475000Y-829250D02*
D03*
X599000Y-703000D02*
D03*
X599793Y-69250D02*
D03*
X192000Y-486000D02*
D03*
X185420Y-580490D02*
D03*
D48*
X579000Y-264000D02*
D03*
D49*
X40000Y-315000D02*
D03*
X110000D02*
D03*
X39000Y-161000D02*
D03*
X109000D02*
D03*
D50*
X868300Y-564900D02*
D03*
X511700Y-144900D02*
D03*
X842900Y-641100D02*
D03*
X571900Y-628100D02*
D03*
X460900Y-144900D02*
D03*
X511000Y-667800D02*
D03*
X460200D02*
D03*
X180900Y-670900D02*
D03*
X648100Y-628100D02*
D03*
Y-602700D02*
D03*
Y-577300D02*
D03*
Y-551900D02*
D03*
X571900Y-602700D02*
D03*
Y-577300D02*
D03*
X893700Y-564900D02*
D03*
X842900D02*
D03*
X919100Y-641100D02*
D03*
X893700D02*
D03*
X868300D02*
D03*
X364000Y-508000D02*
D03*
Y-482600D02*
D03*
Y-457200D02*
D03*
Y-431800D02*
D03*
X287800Y-508000D02*
D03*
Y-482600D02*
D03*
Y-457200D02*
D03*
X460200Y-744000D02*
D03*
X485600D02*
D03*
X511000D02*
D03*
X536400D02*
D03*
X485600Y-667800D02*
D03*
X460900Y-221100D02*
D03*
X486300D02*
D03*
X511700D02*
D03*
X537100D02*
D03*
X486300Y-144900D02*
D03*
X180900Y-747100D02*
D03*
X206300D02*
D03*
X231700D02*
D03*
X257100D02*
D03*
X206300Y-670900D02*
D03*
X231700D02*
D03*
D51*
X559300Y-464650D02*
D03*
D52*
X572000D02*
D03*
X584700D02*
D03*
D53*
X571900Y-551900D02*
D03*
X287800Y-431800D02*
D03*
D54*
X919100Y-564900D02*
D03*
X536400Y-667800D02*
D03*
X537100Y-144900D02*
D03*
X257100Y-670900D02*
D03*
D55*
X47000Y-862000D02*
D03*
Y-47000D02*
D03*
X959000Y-39000D02*
D03*
X946000Y-865000D02*
D03*
D56*
X917000Y-114000D02*
D03*
Y-164000D02*
D03*
X300000Y-54000D02*
D03*
X240000Y-74000D02*
D03*
Y-196000D02*
D03*
X360000D02*
D03*
Y-74000D02*
D03*
D57*
X917000Y-214000D02*
D03*
M02*
