G04*
G04 #@! TF.GenerationSoftware,Altium Limited,Altium Designer,24.2.2 (26)*
G04*
G04 Layer_Color=0*
%FSLAX44Y44*%
%MOMM*%
G71*
G04*
G04 #@! TF.SameCoordinates,0EA0B31A-DED8-4D88-AA7A-5696349AFEB5*
G04*
G04*
G04 #@! TF.FilePolarity,Positive*
G04*
G01*
G75*
%ADD60C,0.1000*%
%ADD61C,0.0500*%
D60*
X369000Y-690000D02*
X379000D01*
X374000Y-695000D02*
Y-685000D01*
X87200Y-430000D02*
Y-420000D01*
X82200Y-425000D02*
X92200D01*
X913500Y-327250D02*
Y-317250D01*
X908500Y-322250D02*
X918500D01*
X817000Y-350800D02*
X827000D01*
X822000Y-355800D02*
Y-345800D01*
X891000Y-805000D02*
Y-795000D01*
X886000Y-800000D02*
X896000D01*
X820000Y-722000D02*
X830000D01*
X825000Y-727000D02*
Y-717000D01*
X915000Y-724000D02*
X925000D01*
X920000Y-729000D02*
Y-719000D01*
X683000Y-601000D02*
Y-591000D01*
X678000Y-596000D02*
X688000D01*
X683000Y-491000D02*
Y-481000D01*
X678000Y-486000D02*
X688000D01*
X625000Y-488000D02*
Y-478000D01*
X620000Y-483000D02*
X630000D01*
X839000Y-456000D02*
Y-446000D01*
X834000Y-451000D02*
X844000D01*
X842000Y-506000D02*
Y-496000D01*
X837000Y-501000D02*
X847000D01*
X682000Y-810000D02*
X692000D01*
X687000Y-815000D02*
Y-805000D01*
X760000Y-594000D02*
X770000D01*
X765000Y-599000D02*
Y-589000D01*
X869000Y-723000D02*
X879000D01*
X874000Y-728000D02*
Y-718000D01*
X457000Y-485000D02*
Y-475000D01*
X452000Y-480000D02*
X462000D01*
X805000Y-599000D02*
Y-589000D01*
X800000Y-594000D02*
X810000D01*
X470000Y-811750D02*
X480000D01*
X475000Y-816750D02*
Y-806750D01*
X590000Y-820700D02*
Y-810700D01*
X585000Y-815700D02*
X595000D01*
X545000Y-840750D02*
Y-830750D01*
X540000Y-835750D02*
X550000D01*
X502000Y-485000D02*
Y-475000D01*
X497000Y-480000D02*
X507000D01*
X345800Y-758000D02*
Y-748000D01*
X340800Y-753000D02*
X350800D01*
X338000Y-808000D02*
X348000D01*
X343000Y-813000D02*
Y-803000D01*
X373000Y-603000D02*
Y-593000D01*
X368000Y-598000D02*
X378000D01*
X55880Y-669150D02*
Y-659150D01*
X50880Y-664150D02*
X60880D01*
X594793Y-86750D02*
X604793D01*
X599793Y-91750D02*
Y-81750D01*
X187000Y-468500D02*
X197000D01*
X192000Y-473500D02*
Y-463500D01*
X119460Y-802310D02*
X129460D01*
X124460Y-807310D02*
Y-797310D01*
X256820Y-608270D02*
X266820D01*
X261820Y-613270D02*
Y-603270D01*
X315000Y-589000D02*
Y-579000D01*
X310000Y-584000D02*
X320000D01*
X75000Y-498000D02*
X85000D01*
X80000Y-503000D02*
Y-493000D01*
X631000Y-820700D02*
Y-810700D01*
X626000Y-815700D02*
X636000D01*
X485293Y-73000D02*
X495293D01*
X490293Y-78000D02*
Y-68000D01*
X678500Y-268250D02*
X688500D01*
X683500Y-273250D02*
Y-263250D01*
X233560Y-808310D02*
X243560D01*
X238560Y-813310D02*
Y-803310D01*
X666000Y-172000D02*
Y-162000D01*
X661000Y-167000D02*
X671000D01*
X79430Y-582870D02*
X89430D01*
X84430Y-587870D02*
Y-577870D01*
X603000Y-198000D02*
X613000D01*
X608000Y-203000D02*
Y-193000D01*
X764000Y-490000D02*
Y-480000D01*
X759000Y-485000D02*
X769000D01*
X922000Y-488000D02*
Y-478000D01*
X917000Y-483000D02*
X927000D01*
X809750Y-126500D02*
Y-116500D01*
X804750Y-121500D02*
X814750D01*
X55880Y-787260D02*
Y-777260D01*
X50880Y-782260D02*
X60880D01*
X114380Y-665420D02*
X124380D01*
X119380Y-670420D02*
Y-660420D01*
X493000Y-599000D02*
Y-589000D01*
X488000Y-594000D02*
X498000D01*
X317000Y-688000D02*
Y-678000D01*
X312000Y-683000D02*
X322000D01*
D61*
X912000Y-168998D02*
Y-158998D01*
X907000Y-163998D02*
X917000D01*
M02*
