G04*
G04 #@! TF.GenerationSoftware,Altium Limited,Altium Designer,24.2.2 (26)*
G04*
G04 Layer_Physical_Order=2*
G04 Layer_Color=16711680*
%FSLAX44Y44*%
%MOMM*%
G71*
G04*
G04 #@! TF.SameCoordinates,0EA0B31A-DED8-4D88-AA7A-5696349AFEB5*
G04*
G04*
G04 #@! TF.FilePolarity,Positive*
G04*
G01*
G75*
%ADD21C,1.5500*%
%ADD24C,2.0000*%
%ADD25C,1.2000*%
%ADD26R,1.2000X1.2000*%
%ADD28C,1.1500*%
%ADD29R,1.1500X1.1500*%
%ADD30R,1.1500X1.1500*%
%ADD32R,1.5500X1.5500*%
%ADD34R,1.2000X1.2000*%
%ADD35R,1.5500X1.5500*%
%ADD39C,1.3000*%
%ADD40R,1.3000X1.3000*%
%ADD44C,0.3810*%
%ADD46C,0.7620*%
%ADD48R,1.3000X1.3000*%
%ADD49C,1.1000*%
%ADD50C,1.5000*%
%ADD51R,1.0500X1.0500*%
%ADD52C,1.0500*%
%ADD53R,1.5000X1.5000*%
%ADD54R,1.5000X1.5000*%
%ADD55C,3.2000*%
%ADD56C,1.9500*%
G04:AMPARAMS|DCode=57|XSize=1.95mm|YSize=1.95mm|CornerRadius=0.4875mm|HoleSize=0mm|Usage=FLASHONLY|Rotation=90.000|XOffset=0mm|YOffset=0mm|HoleType=Round|Shape=RoundedRectangle|*
%AMROUNDEDRECTD57*
21,1,1.9500,0.9750,0,0,90.0*
21,1,0.9750,1.9500,0,0,90.0*
1,1,0.9750,0.4875,0.4875*
1,1,0.9750,0.4875,-0.4875*
1,1,0.9750,-0.4875,-0.4875*
1,1,0.9750,-0.4875,0.4875*
%
%ADD57ROUNDEDRECTD57*%
%ADD58C,1.2700*%
G36*
X995000Y-911000D02*
X0D01*
Y0D01*
X995000D01*
Y-911000D01*
D02*
G37*
%LPC*%
G36*
X904540Y-16698D02*
Y-26460D01*
X914302D01*
X913685Y-24160D01*
X912035Y-21300D01*
X909700Y-18966D01*
X906840Y-17315D01*
X904540Y-16698D01*
D02*
G37*
G36*
X899460D02*
X897160Y-17315D01*
X894300Y-18966D01*
X891965Y-21300D01*
X890315Y-24160D01*
X889698Y-26460D01*
X899460D01*
Y-16698D01*
D02*
G37*
G36*
X141540Y-27698D02*
Y-37460D01*
X151302D01*
X150685Y-35160D01*
X149035Y-32300D01*
X146700Y-29966D01*
X143840Y-28315D01*
X141540Y-27698D01*
D02*
G37*
G36*
X136460D02*
X134160Y-28315D01*
X131300Y-29966D01*
X128966Y-32300D01*
X127315Y-35160D01*
X126698Y-37460D01*
X136460D01*
Y-27698D01*
D02*
G37*
G36*
X914302Y-31540D02*
X904540D01*
Y-41302D01*
X906840Y-40685D01*
X909700Y-39035D01*
X912035Y-36700D01*
X913685Y-33840D01*
X914302Y-31540D01*
D02*
G37*
G36*
X899460D02*
X889698D01*
X890315Y-33840D01*
X891965Y-36700D01*
X894300Y-39035D01*
X897160Y-40685D01*
X899460Y-41302D01*
Y-31540D01*
D02*
G37*
G36*
X151302Y-42540D02*
X141540D01*
Y-52302D01*
X143840Y-51685D01*
X146700Y-50034D01*
X149035Y-47700D01*
X150685Y-44840D01*
X151302Y-42540D01*
D02*
G37*
G36*
X136460D02*
X126698D01*
X127315Y-44840D01*
X128966Y-47700D01*
X131300Y-50034D01*
X134160Y-51685D01*
X136460Y-52302D01*
Y-42540D01*
D02*
G37*
G36*
X960951Y-19190D02*
X957049D01*
X953222Y-19951D01*
X949616Y-21445D01*
X946372Y-23613D01*
X943613Y-26372D01*
X941445Y-29616D01*
X939951Y-33222D01*
X939190Y-37049D01*
Y-40951D01*
X939951Y-44778D01*
X941445Y-48383D01*
X943613Y-51628D01*
X946372Y-54387D01*
X949616Y-56555D01*
X953222Y-58049D01*
X957049Y-58810D01*
X960951D01*
X964778Y-58049D01*
X968384Y-56555D01*
X971628Y-54387D01*
X974387Y-51628D01*
X976555Y-48383D01*
X978049Y-44778D01*
X978810Y-40951D01*
Y-37049D01*
X978049Y-33222D01*
X976555Y-29616D01*
X974387Y-26372D01*
X971628Y-23613D01*
X968384Y-21445D01*
X964778Y-19951D01*
X960951Y-19190D01*
D02*
G37*
G36*
X505332Y-57778D02*
Y-65210D01*
X512765D01*
X512381Y-63778D01*
X511027Y-61432D01*
X509111Y-59516D01*
X506764Y-58161D01*
X505332Y-57778D01*
D02*
G37*
G36*
X500252D02*
X498821Y-58161D01*
X496474Y-59516D01*
X494558Y-61432D01*
X493204Y-63778D01*
X492820Y-65210D01*
X500252D01*
Y-57778D01*
D02*
G37*
G36*
X48951Y-27190D02*
X45049D01*
X41222Y-27951D01*
X37617Y-29445D01*
X34372Y-31613D01*
X31613Y-34372D01*
X29445Y-37617D01*
X27951Y-41222D01*
X27190Y-45049D01*
Y-48951D01*
X27951Y-52778D01*
X29445Y-56384D01*
X31613Y-59628D01*
X34372Y-62387D01*
X37617Y-64555D01*
X41222Y-66049D01*
X45049Y-66810D01*
X48951D01*
X52778Y-66049D01*
X56384Y-64555D01*
X59628Y-62387D01*
X62387Y-59628D01*
X64555Y-56384D01*
X66049Y-52778D01*
X66810Y-48951D01*
Y-45049D01*
X66049Y-41222D01*
X64555Y-37617D01*
X62387Y-34372D01*
X59628Y-31613D01*
X56384Y-29445D01*
X52778Y-27951D01*
X48951Y-27190D01*
D02*
G37*
G36*
X301785Y-40440D02*
X298215D01*
X294766Y-41364D01*
X291674Y-43149D01*
X289149Y-45674D01*
X287364Y-48766D01*
X286440Y-52215D01*
Y-55785D01*
X287364Y-59234D01*
X289149Y-62326D01*
X291674Y-64851D01*
X294766Y-66636D01*
X298215Y-67560D01*
X301785D01*
X305234Y-66636D01*
X308326Y-64851D01*
X310851Y-62326D01*
X312636Y-59234D01*
X313560Y-55785D01*
Y-52215D01*
X312636Y-48766D01*
X310851Y-45674D01*
X308326Y-43149D01*
X305234Y-41364D01*
X301785Y-40440D01*
D02*
G37*
G36*
X512765Y-70290D02*
X505332D01*
Y-77722D01*
X506764Y-77339D01*
X509111Y-75984D01*
X511027Y-74068D01*
X512381Y-71722D01*
X512765Y-70290D01*
D02*
G37*
G36*
X500252D02*
X492820D01*
X493204Y-71722D01*
X494558Y-74068D01*
X496474Y-75984D01*
X498821Y-77339D01*
X500252Y-77722D01*
Y-70290D01*
D02*
G37*
G36*
X489352Y-56190D02*
X466232D01*
Y-79310D01*
X489352D01*
Y-56190D01*
D02*
G37*
G36*
X610103Y-58940D02*
X589482D01*
Y-79560D01*
X610103D01*
Y-58940D01*
D02*
G37*
G36*
X241785Y-60440D02*
X238215D01*
X234766Y-61364D01*
X231674Y-63149D01*
X229149Y-65674D01*
X227364Y-68766D01*
X226440Y-72215D01*
Y-75785D01*
X227364Y-79234D01*
X229149Y-82326D01*
X231674Y-84851D01*
X234766Y-86636D01*
X238215Y-87560D01*
X241785D01*
X245234Y-86636D01*
X248326Y-84851D01*
X250851Y-82326D01*
X252636Y-79234D01*
X253560Y-75785D01*
Y-72215D01*
X252636Y-68766D01*
X250851Y-65674D01*
X248326Y-63149D01*
X245234Y-61364D01*
X241785Y-60440D01*
D02*
G37*
G36*
X21522Y-81440D02*
X18478D01*
X15538Y-82228D01*
X12902Y-83750D01*
X10750Y-85902D01*
X9228Y-88538D01*
X8440Y-91478D01*
Y-94522D01*
X9228Y-97462D01*
X10750Y-100098D01*
X12902Y-102250D01*
X15538Y-103772D01*
X18478Y-104560D01*
X21522D01*
X24462Y-103772D01*
X27098Y-102250D01*
X29250Y-100098D01*
X30772Y-97462D01*
X31560Y-94522D01*
Y-91478D01*
X30772Y-88538D01*
X29250Y-85902D01*
X27098Y-83750D01*
X24462Y-82228D01*
X21522Y-81440D01*
D02*
G37*
G36*
X601150Y-93940D02*
X598435D01*
X595813Y-94643D01*
X593462Y-96000D01*
X591543Y-97920D01*
X590185Y-100271D01*
X589482Y-102893D01*
Y-105607D01*
X590185Y-108230D01*
X591543Y-110581D01*
X593462Y-112500D01*
X595813Y-113857D01*
X598435Y-114560D01*
X601150D01*
X603772Y-113857D01*
X606123Y-112500D01*
X608043Y-110581D01*
X609400Y-108230D01*
X610103Y-105607D01*
Y-102893D01*
X609400Y-100271D01*
X608043Y-97920D01*
X606123Y-96000D01*
X603772Y-94643D01*
X601150Y-93940D01*
D02*
G37*
G36*
X812460Y-124028D02*
X811028Y-124411D01*
X808682Y-125766D01*
X806766Y-127682D01*
X805411Y-130028D01*
X805028Y-131460D01*
X812460D01*
Y-124028D01*
D02*
G37*
G36*
X674290Y-125910D02*
X668540D01*
Y-131660D01*
X674290D01*
Y-125910D01*
D02*
G37*
G36*
X663460D02*
X657710D01*
Y-131660D01*
X663460D01*
Y-125910D01*
D02*
G37*
G36*
X514240Y-135186D02*
Y-142360D01*
X521414D01*
X521056Y-141025D01*
X519734Y-138735D01*
X517865Y-136866D01*
X515575Y-135544D01*
X514240Y-135186D01*
D02*
G37*
G36*
X463440D02*
Y-142360D01*
X470614D01*
X470256Y-141025D01*
X468934Y-138735D01*
X467065Y-136866D01*
X464775Y-135544D01*
X463440Y-135186D01*
D02*
G37*
G36*
X509160D02*
X507825Y-135544D01*
X505535Y-136866D01*
X503666Y-138735D01*
X502344Y-141025D01*
X501986Y-142360D01*
X509160D01*
Y-135186D01*
D02*
G37*
G36*
X458360D02*
X457025Y-135544D01*
X454735Y-136866D01*
X452866Y-138735D01*
X451544Y-141025D01*
X451186Y-142360D01*
X458360D01*
Y-135186D01*
D02*
G37*
G36*
X674290Y-136740D02*
X668540D01*
Y-142490D01*
X674290D01*
Y-136740D01*
D02*
G37*
G36*
X663460D02*
X657710D01*
Y-142490D01*
X663460D01*
Y-136740D01*
D02*
G37*
G36*
X824972Y-136540D02*
X817540D01*
Y-143972D01*
X818972Y-143589D01*
X821318Y-142234D01*
X823234Y-140318D01*
X824589Y-137972D01*
X824972Y-136540D01*
D02*
G37*
G36*
X812460D02*
X805028D01*
X805411Y-137972D01*
X806766Y-140318D01*
X808682Y-142234D01*
X811028Y-143589D01*
X812460Y-143972D01*
Y-136540D01*
D02*
G37*
G36*
X509160Y-147440D02*
X501986D01*
X502344Y-148775D01*
X503666Y-151065D01*
X505535Y-152934D01*
X507825Y-154256D01*
X509160Y-154614D01*
Y-147440D01*
D02*
G37*
G36*
X458360D02*
X451186D01*
X451544Y-148775D01*
X452866Y-151065D01*
X454735Y-152934D01*
X457025Y-154256D01*
X458360Y-154614D01*
Y-147440D01*
D02*
G37*
G36*
X521414D02*
X514240D01*
Y-154614D01*
X515575Y-154256D01*
X517865Y-152934D01*
X519734Y-151065D01*
X521056Y-148775D01*
X521414Y-147440D01*
D02*
G37*
G36*
X470614D02*
X463440D01*
Y-154614D01*
X464775Y-154256D01*
X467065Y-152934D01*
X468934Y-151065D01*
X470256Y-148775D01*
X470614Y-147440D01*
D02*
G37*
G36*
X548410Y-133590D02*
X525790D01*
Y-156210D01*
X548410D01*
Y-133590D01*
D02*
G37*
G36*
X487789D02*
X484811D01*
X481935Y-134361D01*
X479356Y-135850D01*
X477250Y-137956D01*
X475761Y-140534D01*
X474990Y-143411D01*
Y-146389D01*
X475761Y-149265D01*
X477250Y-151845D01*
X479356Y-153950D01*
X481935Y-155439D01*
X484811Y-156210D01*
X487789D01*
X490666Y-155439D01*
X493245Y-153950D01*
X495350Y-151845D01*
X496839Y-149265D01*
X497610Y-146389D01*
Y-143411D01*
X496839Y-140534D01*
X495350Y-137956D01*
X493245Y-135850D01*
X490666Y-134361D01*
X487789Y-133590D01*
D02*
G37*
G36*
X110226Y-151690D02*
X107774D01*
X105407Y-152324D01*
X103284Y-153550D01*
X101550Y-155283D01*
X100324Y-157407D01*
X99690Y-159774D01*
Y-162226D01*
X100324Y-164594D01*
X101550Y-166716D01*
X103284Y-168450D01*
X105407Y-169676D01*
X107774Y-170310D01*
X110226D01*
X112593Y-169676D01*
X114717Y-168450D01*
X116450Y-166716D01*
X117676Y-164594D01*
X118310Y-162226D01*
Y-159774D01*
X117676Y-157407D01*
X116450Y-155283D01*
X114717Y-153550D01*
X112593Y-152324D01*
X110226Y-151690D01*
D02*
G37*
G36*
X40226D02*
X37774D01*
X35406Y-152324D01*
X33284Y-153550D01*
X31550Y-155283D01*
X30324Y-157407D01*
X29690Y-159774D01*
Y-162226D01*
X30324Y-164594D01*
X31550Y-166716D01*
X33284Y-168450D01*
X35406Y-169676D01*
X37774Y-170310D01*
X40226D01*
X42593Y-169676D01*
X44717Y-168450D01*
X46450Y-166716D01*
X47675Y-164594D01*
X48310Y-162226D01*
Y-159774D01*
X47675Y-157407D01*
X46450Y-155283D01*
X44717Y-153550D01*
X42593Y-152324D01*
X40226Y-151690D01*
D02*
G37*
G36*
X826560Y-97440D02*
X803440D01*
Y-120560D01*
X815691D01*
X817954Y-122824D01*
X817540Y-123542D01*
Y-131460D01*
X825458D01*
X826176Y-131046D01*
X864565Y-169435D01*
X864565Y-169435D01*
X866157Y-170656D01*
X868011Y-171424D01*
X870000Y-171686D01*
X870000Y-171686D01*
X905780D01*
X906149Y-172326D01*
X908674Y-174851D01*
X911766Y-176636D01*
X915215Y-177560D01*
X918785D01*
X922234Y-176636D01*
X925326Y-174851D01*
X927851Y-172326D01*
X929636Y-169234D01*
X930560Y-165785D01*
Y-162215D01*
X929636Y-158766D01*
X927851Y-155674D01*
X925326Y-153149D01*
X922234Y-151364D01*
X918785Y-150440D01*
X915215D01*
X911766Y-151364D01*
X908674Y-153149D01*
X906149Y-155674D01*
X905780Y-156314D01*
X873184D01*
X826560Y-109691D01*
Y-97440D01*
D02*
G37*
G36*
X630310Y-188190D02*
X610690D01*
Y-207810D01*
X630310D01*
Y-188190D01*
D02*
G37*
G36*
X596791D02*
X594208D01*
X591713Y-188859D01*
X589477Y-190150D01*
X587650Y-191977D01*
X586358Y-194214D01*
X585690Y-196709D01*
Y-199291D01*
X586358Y-201786D01*
X587650Y-204023D01*
X589477Y-205850D01*
X591713Y-207141D01*
X594208Y-207810D01*
X596791D01*
X599286Y-207141D01*
X601524Y-205850D01*
X603350Y-204023D01*
X604641Y-201786D01*
X605310Y-199291D01*
Y-196709D01*
X604641Y-194214D01*
X603350Y-191977D01*
X601524Y-190150D01*
X599286Y-188859D01*
X596791Y-188190D01*
D02*
G37*
G36*
X667259Y-190240D02*
X664741D01*
X662310Y-190891D01*
X660130Y-192150D01*
X658350Y-193930D01*
X657092Y-196110D01*
X656440Y-198541D01*
Y-201059D01*
X657092Y-203490D01*
X658350Y-205670D01*
X660130Y-207450D01*
X662310Y-208708D01*
X664741Y-209360D01*
X667259D01*
X669690Y-208708D01*
X671870Y-207450D01*
X673650Y-205670D01*
X674909Y-203490D01*
X675560Y-201059D01*
Y-198541D01*
X674909Y-196110D01*
X673650Y-193930D01*
X671870Y-192150D01*
X669690Y-190891D01*
X667259Y-190240D01*
D02*
G37*
G36*
X361785Y-182440D02*
X358215D01*
X354766Y-183364D01*
X351674Y-185149D01*
X349149Y-187674D01*
X347364Y-190766D01*
X346440Y-194215D01*
Y-197785D01*
X347364Y-201234D01*
X349149Y-204326D01*
X351674Y-206851D01*
X354766Y-208636D01*
X358215Y-209560D01*
X361785D01*
X365234Y-208636D01*
X368326Y-206851D01*
X370851Y-204326D01*
X372636Y-201234D01*
X373560Y-197785D01*
Y-194215D01*
X372636Y-190766D01*
X370851Y-187674D01*
X368326Y-185149D01*
X365234Y-183364D01*
X361785Y-182440D01*
D02*
G37*
G36*
X79540Y-219477D02*
Y-225460D01*
X85523D01*
X85284Y-224569D01*
X84114Y-222541D01*
X82459Y-220886D01*
X80431Y-219716D01*
X79540Y-219477D01*
D02*
G37*
G36*
X74460D02*
X73569Y-219716D01*
X71541Y-220886D01*
X69886Y-222541D01*
X68716Y-224569D01*
X68477Y-225460D01*
X74460D01*
Y-219477D01*
D02*
G37*
G36*
X538589Y-209790D02*
X535611D01*
X532734Y-210561D01*
X530155Y-212050D01*
X528050Y-214156D01*
X526561Y-216735D01*
X525790Y-219611D01*
Y-222589D01*
X526561Y-225466D01*
X528050Y-228044D01*
X530155Y-230150D01*
X532734Y-231639D01*
X535611Y-232410D01*
X538589D01*
X541465Y-231639D01*
X544044Y-230150D01*
X546150Y-228044D01*
X547639Y-225466D01*
X548410Y-222589D01*
Y-219611D01*
X547639Y-216735D01*
X546150Y-214156D01*
X544044Y-212050D01*
X541465Y-210561D01*
X538589Y-209790D01*
D02*
G37*
G36*
X513189D02*
X510211D01*
X507335Y-210561D01*
X504756Y-212050D01*
X502650Y-214156D01*
X501161Y-216735D01*
X500390Y-219611D01*
Y-222589D01*
X501161Y-225466D01*
X502650Y-228044D01*
X504756Y-230150D01*
X507335Y-231639D01*
X510211Y-232410D01*
X513189D01*
X516065Y-231639D01*
X518644Y-230150D01*
X520750Y-228044D01*
X522239Y-225466D01*
X523010Y-222589D01*
Y-219611D01*
X522239Y-216735D01*
X520750Y-214156D01*
X518644Y-212050D01*
X516065Y-210561D01*
X513189Y-209790D01*
D02*
G37*
G36*
X462389D02*
X459411D01*
X456535Y-210561D01*
X453955Y-212050D01*
X451850Y-214156D01*
X450361Y-216735D01*
X449590Y-219611D01*
Y-222589D01*
X450361Y-225466D01*
X451850Y-228044D01*
X453955Y-230150D01*
X456535Y-231639D01*
X459411Y-232410D01*
X462389D01*
X465266Y-231639D01*
X467845Y-230150D01*
X469950Y-228044D01*
X471439Y-225466D01*
X472210Y-222589D01*
Y-219611D01*
X471439Y-216735D01*
X469950Y-214156D01*
X467845Y-212050D01*
X465266Y-210561D01*
X462389Y-209790D01*
D02*
G37*
G36*
X85523Y-230540D02*
X79540D01*
Y-236523D01*
X80431Y-236284D01*
X82459Y-235114D01*
X84114Y-233459D01*
X85284Y-231431D01*
X85523Y-230540D01*
D02*
G37*
G36*
X74460D02*
X68477D01*
X68716Y-231431D01*
X69886Y-233459D01*
X71541Y-235114D01*
X73569Y-236284D01*
X74460Y-236523D01*
Y-230540D01*
D02*
G37*
G36*
X601540Y-255322D02*
Y-261460D01*
X607678D01*
X607424Y-260511D01*
X606234Y-258449D01*
X604551Y-256766D01*
X602489Y-255576D01*
X601540Y-255322D01*
D02*
G37*
G36*
X607678Y-266540D02*
X601540D01*
Y-272678D01*
X602489Y-272424D01*
X604551Y-271234D01*
X606234Y-269551D01*
X607424Y-267489D01*
X607678Y-266540D01*
D02*
G37*
G36*
X589310Y-253690D02*
X568690D01*
Y-274310D01*
X589310D01*
Y-267671D01*
X590576Y-267489D01*
X591766Y-269551D01*
X593449Y-271234D01*
X595511Y-272424D01*
X596460Y-272678D01*
Y-264000D01*
Y-255322D01*
X595511Y-255576D01*
X593449Y-256766D01*
X591766Y-258449D01*
X590576Y-260511D01*
X589310Y-260329D01*
Y-253690D01*
D02*
G37*
G36*
X697522Y-251440D02*
X694478D01*
X691538Y-252228D01*
X688902Y-253750D01*
X686750Y-255902D01*
X685228Y-258538D01*
X684440Y-261478D01*
Y-264522D01*
X685228Y-267462D01*
X686750Y-270098D01*
X688902Y-272250D01*
X691538Y-273772D01*
X694478Y-274560D01*
X697522D01*
X700462Y-273772D01*
X703098Y-272250D01*
X705250Y-270098D01*
X706772Y-267462D01*
X707560Y-264522D01*
Y-261478D01*
X706772Y-258538D01*
X705250Y-255902D01*
X703098Y-253750D01*
X700462Y-252228D01*
X697522Y-251440D01*
D02*
G37*
G36*
X682560D02*
X659440D01*
Y-274560D01*
X682560D01*
Y-251440D01*
D02*
G37*
G36*
X921875Y-200365D02*
X912125D01*
X909858Y-200664D01*
X907745Y-201539D01*
X905931Y-202931D01*
X904539Y-204745D01*
X903663Y-206858D01*
X903365Y-209125D01*
Y-209317D01*
X848998D01*
X847008Y-209578D01*
X845155Y-210346D01*
X843563Y-211568D01*
X714817Y-340314D01*
X407000D01*
X407000Y-340314D01*
X405011Y-340576D01*
X403157Y-341344D01*
X401565Y-342565D01*
X324565Y-419565D01*
X323344Y-421157D01*
X322576Y-423011D01*
X322314Y-425000D01*
Y-462617D01*
X300208Y-484723D01*
X299307Y-484203D01*
X299110Y-484025D01*
Y-481111D01*
X298339Y-478234D01*
X296850Y-475656D01*
X294744Y-473550D01*
X292166Y-472061D01*
X289289Y-471290D01*
X286311D01*
X283435Y-472061D01*
X280856Y-473550D01*
X278750Y-475656D01*
X277261Y-478234D01*
X276490Y-481111D01*
Y-484089D01*
X277261Y-486965D01*
X278750Y-489544D01*
X280856Y-491650D01*
X283435Y-493139D01*
X286311Y-493910D01*
X289225D01*
X289403Y-494107D01*
X289923Y-495008D01*
X288241Y-496690D01*
X286311D01*
X283435Y-497461D01*
X280856Y-498950D01*
X278750Y-501055D01*
X277261Y-503634D01*
X276490Y-506511D01*
Y-509489D01*
X277261Y-512365D01*
X278750Y-514944D01*
X280856Y-517050D01*
X283435Y-518539D01*
X286311Y-519310D01*
X289289D01*
X292166Y-518539D01*
X294744Y-517050D01*
X296850Y-514944D01*
X298339Y-512365D01*
X299110Y-509489D01*
Y-507559D01*
X335435Y-471235D01*
X335435Y-471235D01*
X336656Y-469643D01*
X337424Y-467789D01*
X337686Y-465800D01*
Y-428184D01*
X410184Y-355686D01*
X718000D01*
X719989Y-355424D01*
X721843Y-354656D01*
X723435Y-353435D01*
X852181Y-224688D01*
X905638D01*
X905931Y-225069D01*
X907745Y-226461D01*
X909858Y-227337D01*
X912125Y-227635D01*
X918314D01*
Y-308337D01*
X916750Y-309902D01*
X915228Y-312538D01*
X914440Y-315478D01*
Y-318522D01*
X914513Y-318794D01*
X913648Y-319627D01*
X912560Y-319176D01*
Y-305440D01*
X889440D01*
Y-311173D01*
X828693D01*
X827870Y-310350D01*
X825690Y-309091D01*
X823259Y-308440D01*
X820741D01*
X818310Y-309091D01*
X816130Y-310350D01*
X814350Y-312130D01*
X813092Y-314310D01*
X812440Y-316741D01*
Y-319259D01*
X813092Y-321690D01*
X814350Y-323870D01*
X816130Y-325650D01*
X818310Y-326908D01*
X820741Y-327560D01*
X823259D01*
X825690Y-326908D01*
X827870Y-325650D01*
X829650Y-323870D01*
X830252Y-322827D01*
X889440D01*
Y-328560D01*
X903188D01*
X903674Y-329733D01*
X840565Y-392842D01*
X839344Y-394433D01*
X838576Y-396287D01*
X838314Y-398276D01*
Y-554488D01*
X835956Y-555850D01*
X833850Y-557956D01*
X832361Y-560535D01*
X831590Y-563411D01*
Y-566389D01*
X832361Y-569266D01*
X833850Y-571844D01*
X835956Y-573950D01*
X838534Y-575439D01*
X841411Y-576210D01*
X844389D01*
X847265Y-575439D01*
X849845Y-573950D01*
X851950Y-571844D01*
X853439Y-569266D01*
X854210Y-566389D01*
Y-563411D01*
X853601Y-561137D01*
X853686Y-560490D01*
Y-401460D01*
X926586Y-328560D01*
X927522D01*
X930462Y-327772D01*
X933098Y-326250D01*
X935250Y-324098D01*
X936772Y-321462D01*
X937560Y-318522D01*
Y-315478D01*
X936772Y-312538D01*
X935250Y-309902D01*
X933686Y-308337D01*
Y-223000D01*
X933686Y-223000D01*
X933424Y-221011D01*
X932656Y-219157D01*
X931435Y-217565D01*
X930635Y-216766D01*
Y-209125D01*
X930336Y-206858D01*
X929461Y-204745D01*
X928069Y-202931D01*
X926255Y-201539D01*
X924142Y-200664D01*
X921875Y-200365D01*
D02*
G37*
G36*
X41226Y-305690D02*
X38774D01*
X36407Y-306325D01*
X34283Y-307550D01*
X32550Y-309284D01*
X31325Y-311406D01*
X30690Y-313774D01*
Y-316226D01*
X31325Y-318594D01*
X32550Y-320717D01*
X34283Y-322450D01*
X36407Y-323675D01*
X38774Y-324310D01*
X41226D01*
X43594Y-323675D01*
X45717Y-322450D01*
X47450Y-320717D01*
X48675Y-318594D01*
X49310Y-316226D01*
Y-313774D01*
X48675Y-311406D01*
X47450Y-309284D01*
X45717Y-307550D01*
X43594Y-306325D01*
X41226Y-305690D01*
D02*
G37*
G36*
X830290Y-375310D02*
X824540D01*
Y-381060D01*
X830290D01*
Y-375310D01*
D02*
G37*
G36*
X819460D02*
X813710D01*
Y-381060D01*
X819460D01*
Y-375310D01*
D02*
G37*
G36*
X21522Y-364440D02*
X18478D01*
X15538Y-365228D01*
X12902Y-366750D01*
X10750Y-368902D01*
X9228Y-371538D01*
X8440Y-374478D01*
Y-377522D01*
X9228Y-380462D01*
X10750Y-383098D01*
X12902Y-385250D01*
X15538Y-386772D01*
X18478Y-387560D01*
X21522D01*
X24462Y-386772D01*
X27098Y-385250D01*
X29250Y-383098D01*
X30772Y-380462D01*
X31560Y-377522D01*
Y-374478D01*
X30772Y-371538D01*
X29250Y-368902D01*
X27098Y-366750D01*
X24462Y-365228D01*
X21522Y-364440D01*
D02*
G37*
G36*
X830290Y-386140D02*
X824540D01*
Y-391890D01*
X830290D01*
Y-386140D01*
D02*
G37*
G36*
X819460D02*
X813710D01*
Y-391890D01*
X819460D01*
Y-386140D01*
D02*
G37*
G36*
X121259Y-415440D02*
X118741D01*
X116310Y-416091D01*
X114130Y-417350D01*
X112350Y-419130D01*
X111091Y-421310D01*
X110440Y-423741D01*
Y-426259D01*
X111091Y-428690D01*
X112350Y-430870D01*
X114130Y-432650D01*
X116310Y-433909D01*
X118741Y-434560D01*
X121259D01*
X123690Y-433909D01*
X125870Y-432650D01*
X127650Y-430870D01*
X128909Y-428690D01*
X129560Y-426259D01*
Y-423741D01*
X128909Y-421310D01*
X127650Y-419130D01*
X125870Y-417350D01*
X123690Y-416091D01*
X121259Y-415440D01*
D02*
G37*
G36*
X299110Y-420490D02*
X276490D01*
Y-443110D01*
X299110D01*
Y-420490D01*
D02*
G37*
G36*
X466560Y-437640D02*
X447440D01*
Y-456760D01*
X466560D01*
Y-437640D01*
D02*
G37*
G36*
X585893Y-455590D02*
X583507D01*
X581203Y-456207D01*
X579137Y-457400D01*
X578350Y-458187D01*
X577563Y-457400D01*
X575497Y-456207D01*
X573193Y-455590D01*
X570807D01*
X568503Y-456207D01*
X567231Y-456942D01*
X567090Y-456860D01*
Y-456860D01*
X561840D01*
Y-464650D01*
Y-472440D01*
X567090D01*
Y-472440D01*
X567231Y-472358D01*
X568503Y-473093D01*
X570807Y-473710D01*
X573193D01*
X575497Y-473093D01*
X577563Y-471900D01*
X578350Y-471113D01*
X579137Y-471900D01*
X581203Y-473093D01*
X583507Y-473710D01*
X585893D01*
X588197Y-473093D01*
X590263Y-471900D01*
X591950Y-470213D01*
X593143Y-468147D01*
X593760Y-465843D01*
Y-463457D01*
X593143Y-461153D01*
X591950Y-459087D01*
X590263Y-457400D01*
X588197Y-456207D01*
X585893Y-455590D01*
D02*
G37*
G36*
X923259Y-440640D02*
X920741D01*
X918310Y-441292D01*
X916130Y-442550D01*
X914350Y-444330D01*
X913092Y-446510D01*
X912440Y-448941D01*
Y-451459D01*
X913092Y-453890D01*
X914350Y-456070D01*
X916130Y-457850D01*
X918310Y-459109D01*
X920741Y-459760D01*
X923259D01*
X925690Y-459109D01*
X927870Y-457850D01*
X929650Y-456070D01*
X930909Y-453890D01*
X931560Y-451459D01*
Y-448941D01*
X930909Y-446510D01*
X929650Y-444330D01*
X927870Y-442550D01*
X925690Y-441292D01*
X923259Y-440640D01*
D02*
G37*
G36*
X634560D02*
X615440D01*
Y-459760D01*
X634560D01*
Y-440640D01*
D02*
G37*
G36*
X886940Y-441190D02*
X867320D01*
Y-460810D01*
X886940D01*
Y-441190D01*
D02*
G37*
G36*
X802161D02*
X799578D01*
X797084Y-441859D01*
X794846Y-443150D01*
X793020Y-444977D01*
X791729Y-447214D01*
X791060Y-449709D01*
Y-452291D01*
X791729Y-454786D01*
X793020Y-457024D01*
X794846Y-458850D01*
X797084Y-460141D01*
X799578Y-460810D01*
X802161D01*
X804657Y-460141D01*
X806893Y-458850D01*
X808720Y-457024D01*
X810012Y-454786D01*
X810680Y-452291D01*
Y-449709D01*
X810012Y-447214D01*
X808720Y-444977D01*
X806893Y-443150D01*
X804657Y-441859D01*
X802161Y-441190D01*
D02*
G37*
G36*
X193357Y-440690D02*
X190643D01*
X188020Y-441393D01*
X185669Y-442750D01*
X183750Y-444669D01*
X182393Y-447020D01*
X181690Y-449643D01*
Y-452357D01*
X182393Y-454980D01*
X183750Y-457331D01*
X185669Y-459250D01*
X188020Y-460607D01*
X190643Y-461310D01*
X193357D01*
X195979Y-460607D01*
X198330Y-459250D01*
X200250Y-457331D01*
X201607Y-454980D01*
X202310Y-452357D01*
Y-449643D01*
X201607Y-447020D01*
X200250Y-444669D01*
X198330Y-442750D01*
X195979Y-441393D01*
X193357Y-440690D01*
D02*
G37*
G36*
X773560Y-442640D02*
X754440D01*
Y-461760D01*
X773560D01*
Y-442640D01*
D02*
G37*
G36*
X556760Y-456860D02*
X551510D01*
Y-462110D01*
X556760D01*
Y-456860D01*
D02*
G37*
G36*
X692560Y-443640D02*
X673440D01*
Y-462760D01*
X692560D01*
Y-443640D01*
D02*
G37*
G36*
X289289Y-445890D02*
X286311D01*
X283435Y-446661D01*
X280856Y-448150D01*
X278750Y-450256D01*
X277261Y-452835D01*
X276490Y-455711D01*
Y-458689D01*
X277261Y-461566D01*
X278750Y-464145D01*
X280856Y-466250D01*
X283435Y-467739D01*
X286311Y-468510D01*
X289289D01*
X292166Y-467739D01*
X294744Y-466250D01*
X296850Y-464145D01*
X298339Y-461566D01*
X299110Y-458689D01*
Y-455711D01*
X298339Y-452835D01*
X296850Y-450256D01*
X294744Y-448150D01*
X292166Y-446661D01*
X289289Y-445890D01*
D02*
G37*
G36*
X556760Y-467190D02*
X551510D01*
Y-472440D01*
X556760D01*
Y-467190D01*
D02*
G37*
G36*
X365489Y-471290D02*
X362511D01*
X359635Y-472061D01*
X357056Y-473550D01*
X354950Y-475656D01*
X353461Y-478234D01*
X352690Y-481111D01*
Y-484089D01*
X353461Y-486965D01*
X354950Y-489544D01*
X357056Y-491650D01*
X359635Y-493139D01*
X362511Y-493910D01*
X365489D01*
X368366Y-493139D01*
X370945Y-491650D01*
X373050Y-489544D01*
X374539Y-486965D01*
X375310Y-484089D01*
Y-481111D01*
X374539Y-478234D01*
X373050Y-475656D01*
X370945Y-473550D01*
X368366Y-472061D01*
X365489Y-471290D01*
D02*
G37*
G36*
X49740Y-490098D02*
Y-495460D01*
X55102D01*
X54925Y-494800D01*
X53834Y-492910D01*
X52290Y-491366D01*
X50400Y-490275D01*
X49740Y-490098D01*
D02*
G37*
G36*
X202310Y-475690D02*
X181690D01*
Y-496310D01*
X202310D01*
Y-475690D01*
D02*
G37*
G36*
X55102Y-500540D02*
X49740D01*
Y-505902D01*
X50400Y-505725D01*
X52290Y-504634D01*
X53834Y-503090D01*
X54925Y-501200D01*
X55102Y-500540D01*
D02*
G37*
G36*
X122360Y-488440D02*
X103240D01*
Y-507560D01*
X122360D01*
Y-488440D01*
D02*
G37*
G36*
X881422Y-491190D02*
X878839D01*
X876344Y-491858D01*
X874107Y-493150D01*
X872280Y-494977D01*
X870988Y-497214D01*
X870320Y-499709D01*
Y-502291D01*
X870988Y-504786D01*
X872280Y-507024D01*
X874107Y-508850D01*
X876344Y-510141D01*
X878839Y-510810D01*
X881422D01*
X883916Y-510141D01*
X886153Y-508850D01*
X887980Y-507024D01*
X889271Y-504786D01*
X889940Y-502291D01*
Y-499709D01*
X889271Y-497214D01*
X887980Y-494977D01*
X886153Y-493150D01*
X883916Y-491858D01*
X881422Y-491190D01*
D02*
G37*
G36*
X813680D02*
X794060D01*
Y-510810D01*
X813680D01*
Y-491190D01*
D02*
G37*
G36*
X365489Y-496690D02*
X362511D01*
X359635Y-497461D01*
X357056Y-498950D01*
X354950Y-501055D01*
X353461Y-503634D01*
X352690Y-506511D01*
Y-509489D01*
X353461Y-512365D01*
X354950Y-514944D01*
X357056Y-517050D01*
X359635Y-518539D01*
X362511Y-519310D01*
X365489D01*
X368366Y-518539D01*
X370945Y-517050D01*
X373050Y-514944D01*
X374539Y-512365D01*
X375310Y-509489D01*
Y-506511D01*
X374539Y-503634D01*
X373050Y-501055D01*
X370945Y-498950D01*
X368366Y-497461D01*
X365489Y-496690D01*
D02*
G37*
G36*
X511560Y-503240D02*
X492440D01*
Y-522360D01*
X511560D01*
Y-503240D01*
D02*
G37*
G36*
X931560Y-506240D02*
X912440D01*
Y-525360D01*
X931560D01*
Y-506240D01*
D02*
G37*
G36*
X765259Y-508240D02*
X762741D01*
X760310Y-508891D01*
X758130Y-510150D01*
X756350Y-511930D01*
X755091Y-514110D01*
X754440Y-516541D01*
Y-519059D01*
X755091Y-521490D01*
X756350Y-523670D01*
X758130Y-525450D01*
X760310Y-526708D01*
X762741Y-527360D01*
X765259D01*
X767690Y-526708D01*
X769870Y-525450D01*
X771650Y-523670D01*
X772908Y-521490D01*
X773560Y-519059D01*
Y-516541D01*
X772908Y-514110D01*
X771650Y-511930D01*
X769870Y-510150D01*
X767690Y-508891D01*
X765259Y-508240D01*
D02*
G37*
G36*
X684259Y-509240D02*
X681741D01*
X679310Y-509892D01*
X677130Y-511150D01*
X675350Y-512930D01*
X674091Y-515110D01*
X673440Y-517541D01*
Y-520059D01*
X674091Y-522490D01*
X675350Y-524670D01*
X677130Y-526450D01*
X679310Y-527709D01*
X681741Y-528360D01*
X684259D01*
X686690Y-527709D01*
X688870Y-526450D01*
X690650Y-524670D01*
X691908Y-522490D01*
X692560Y-520059D01*
Y-517541D01*
X691908Y-515110D01*
X690650Y-512930D01*
X688870Y-511150D01*
X686690Y-509892D01*
X684259Y-509240D01*
D02*
G37*
G36*
X767540Y-553298D02*
Y-558660D01*
X772902D01*
X772725Y-558000D01*
X771634Y-556110D01*
X770090Y-554566D01*
X768200Y-553475D01*
X767540Y-553298D01*
D02*
G37*
G36*
X762460Y-553298D02*
X761800Y-553475D01*
X759910Y-554566D01*
X758366Y-556110D01*
X757275Y-558000D01*
X757098Y-558660D01*
X762460D01*
Y-553298D01*
D02*
G37*
G36*
X870840Y-555186D02*
Y-562360D01*
X878014D01*
X877656Y-561025D01*
X876334Y-558735D01*
X874465Y-556866D01*
X872175Y-555544D01*
X870840Y-555186D01*
D02*
G37*
G36*
X865760D02*
X864425Y-555544D01*
X862135Y-556866D01*
X860266Y-558735D01*
X858944Y-561025D01*
X858586Y-562360D01*
X865760D01*
Y-555186D01*
D02*
G37*
G36*
X381290Y-556910D02*
X375540D01*
Y-562660D01*
X381290D01*
Y-556910D01*
D02*
G37*
G36*
X370460D02*
X364710D01*
Y-562660D01*
X370460D01*
Y-556910D01*
D02*
G37*
G36*
X772902Y-563740D02*
X767540D01*
Y-569102D01*
X768200Y-568925D01*
X770090Y-567834D01*
X771634Y-566290D01*
X772725Y-564400D01*
X772902Y-563740D01*
D02*
G37*
G36*
X762460D02*
X757098D01*
X757275Y-564400D01*
X758366Y-566290D01*
X759910Y-567834D01*
X761800Y-568925D01*
X762460Y-569102D01*
Y-563740D01*
D02*
G37*
G36*
X814560Y-551640D02*
X795440D01*
Y-570760D01*
X814560D01*
Y-551640D01*
D02*
G37*
G36*
X847380Y-36694D02*
X389620D01*
X387631Y-36956D01*
X385777Y-37724D01*
X384185Y-38945D01*
X362499Y-60631D01*
X361785Y-60440D01*
X358215D01*
X354766Y-61364D01*
X351674Y-63149D01*
X349149Y-65674D01*
X348780Y-66314D01*
X332445D01*
X330456Y-66576D01*
X328603Y-67344D01*
X327011Y-68565D01*
X48965Y-346611D01*
X47744Y-348203D01*
X46976Y-350056D01*
X46714Y-352046D01*
Y-415440D01*
X44840D01*
Y-423691D01*
X28395Y-440135D01*
X27174Y-441727D01*
X26406Y-443581D01*
X26144Y-445570D01*
Y-674900D01*
X26406Y-676889D01*
X27174Y-678743D01*
X28395Y-680335D01*
X46320Y-698259D01*
Y-706510D01*
X54571D01*
X75392Y-727331D01*
X75392Y-727332D01*
X76984Y-728553D01*
X78838Y-729321D01*
X80827Y-729583D01*
X80827Y-729583D01*
X228713D01*
X233823Y-734692D01*
X233303Y-735593D01*
X233125Y-735790D01*
X230211D01*
X227334Y-736561D01*
X224755Y-738050D01*
X222650Y-740155D01*
X221161Y-742735D01*
X220390Y-745611D01*
Y-748589D01*
X221161Y-751466D01*
X222650Y-754044D01*
X224755Y-756150D01*
X227334Y-757639D01*
X230211Y-758410D01*
X233189D01*
X236066Y-757639D01*
X238645Y-756150D01*
X240750Y-754044D01*
X242239Y-751466D01*
X243010Y-748589D01*
Y-745675D01*
X243207Y-745497D01*
X244108Y-744977D01*
X245790Y-746659D01*
Y-748589D01*
X246561Y-751466D01*
X248050Y-754044D01*
X250156Y-756150D01*
X252735Y-757639D01*
X255611Y-758410D01*
X258589D01*
X261465Y-757639D01*
X264044Y-756150D01*
X266150Y-754044D01*
X267639Y-751466D01*
X268410Y-748589D01*
Y-745611D01*
X267639Y-742735D01*
X266150Y-740155D01*
X264044Y-738050D01*
X261465Y-736561D01*
X258589Y-735790D01*
X256659D01*
X237332Y-716462D01*
X235740Y-715241D01*
X233886Y-714473D01*
X231897Y-714211D01*
X84010D01*
X65440Y-695641D01*
Y-687390D01*
X57189D01*
X41516Y-671716D01*
Y-593470D01*
X42070Y-592430D01*
X42786Y-592430D01*
X61190D01*
Y-573310D01*
X42786D01*
X42070Y-573310D01*
X41516Y-572270D01*
Y-505757D01*
X42786Y-505024D01*
X44000Y-505725D01*
X44660Y-505902D01*
Y-498000D01*
X47200D01*
D01*
X44660D01*
Y-490098D01*
X44000Y-490275D01*
X42786Y-490976D01*
X41516Y-490243D01*
Y-448754D01*
X55709Y-434560D01*
X63960D01*
Y-415440D01*
X62086D01*
Y-355229D01*
X99876Y-317439D01*
X101103Y-317767D01*
X101325Y-318594D01*
X102550Y-320717D01*
X104284Y-322450D01*
X106406Y-323675D01*
X108774Y-324310D01*
X111226D01*
X113594Y-323675D01*
X115716Y-322450D01*
X117450Y-320717D01*
X118675Y-318594D01*
X119310Y-316226D01*
Y-313774D01*
X118675Y-311406D01*
X117450Y-309284D01*
X115716Y-307550D01*
X113594Y-306325D01*
X112767Y-306103D01*
X112438Y-304876D01*
X225867Y-191448D01*
X227005Y-192106D01*
X226440Y-194215D01*
Y-197785D01*
X227364Y-201234D01*
X229149Y-204326D01*
X231674Y-206851D01*
X234766Y-208636D01*
X238215Y-209560D01*
X241785D01*
X245234Y-208636D01*
X248326Y-206851D01*
X250851Y-204326D01*
X252636Y-201234D01*
X253560Y-197785D01*
Y-194215D01*
X252636Y-190766D01*
X250851Y-187674D01*
X248326Y-185149D01*
X245234Y-183364D01*
X241785Y-182440D01*
X238215D01*
X236106Y-183005D01*
X235448Y-181866D01*
X335629Y-81686D01*
X348780D01*
X349149Y-82326D01*
X351674Y-84851D01*
X354766Y-86636D01*
X358215Y-87560D01*
X361785D01*
X362499Y-87369D01*
X477688Y-202558D01*
Y-213717D01*
X477250Y-214156D01*
X475761Y-216735D01*
X474990Y-219611D01*
Y-222589D01*
X475761Y-225466D01*
X477250Y-228044D01*
X479356Y-230150D01*
X481935Y-231639D01*
X484811Y-232410D01*
X487789D01*
X490666Y-231639D01*
X493245Y-230150D01*
X495350Y-228044D01*
X496839Y-225466D01*
X497610Y-222589D01*
Y-219611D01*
X496839Y-216735D01*
X495350Y-214156D01*
X493245Y-212050D01*
X493060Y-211943D01*
Y-199374D01*
X492798Y-197385D01*
X492030Y-195531D01*
X490809Y-193939D01*
X373369Y-76499D01*
X373560Y-75785D01*
Y-72215D01*
X373369Y-71501D01*
X392804Y-52066D01*
X687483D01*
Y-68810D01*
X691416D01*
X691756Y-70080D01*
X691462Y-70250D01*
X689542Y-72169D01*
X688185Y-74521D01*
X687483Y-77143D01*
Y-79857D01*
X688185Y-82479D01*
X689542Y-84831D01*
X691462Y-86750D01*
X693813Y-88107D01*
X696435Y-88810D01*
X699150D01*
X701772Y-88107D01*
X704123Y-86750D01*
X706043Y-84831D01*
X707400Y-82479D01*
X708102Y-79857D01*
Y-77143D01*
X707400Y-74521D01*
X706043Y-72169D01*
X704123Y-70250D01*
X703829Y-70080D01*
X704169Y-68810D01*
X708102D01*
Y-52066D01*
X844196D01*
X903631Y-111501D01*
X903440Y-112215D01*
Y-115785D01*
X904364Y-119234D01*
X906149Y-122326D01*
X908674Y-124851D01*
X911766Y-126636D01*
X915215Y-127560D01*
X918785D01*
X919499Y-127369D01*
X939314Y-147184D01*
Y-610016D01*
X919541Y-629790D01*
X917611D01*
X914734Y-630561D01*
X912156Y-632050D01*
X910050Y-634156D01*
X908561Y-636735D01*
X907790Y-639611D01*
Y-640231D01*
X906280Y-641741D01*
X905010Y-641215D01*
Y-639611D01*
X904239Y-636735D01*
X902750Y-634156D01*
X900645Y-632050D01*
X898065Y-630561D01*
X895189Y-629790D01*
X892211D01*
X889334Y-630561D01*
X886756Y-632050D01*
X884650Y-634156D01*
X883161Y-636735D01*
X882390Y-639611D01*
Y-642589D01*
X883161Y-645465D01*
X884199Y-647264D01*
X883466Y-648534D01*
X878534D01*
X877801Y-647264D01*
X878839Y-645465D01*
X879610Y-642589D01*
Y-639611D01*
X878839Y-636735D01*
X877350Y-634156D01*
X875245Y-632050D01*
X872665Y-630561D01*
X869789Y-629790D01*
X866811D01*
X863934Y-630561D01*
X861356Y-632050D01*
X859250Y-634156D01*
X857761Y-636735D01*
X856990Y-639611D01*
Y-642589D01*
X857761Y-645465D01*
X858799Y-647264D01*
X858066Y-648534D01*
X851324D01*
X850838Y-647361D01*
X850934Y-647265D01*
X852256Y-644975D01*
X852614Y-643640D01*
X842900D01*
X833186D01*
X833544Y-644975D01*
X834866Y-647265D01*
X834962Y-647361D01*
X834476Y-648534D01*
X755604D01*
X680926Y-573856D01*
X681583Y-572718D01*
X681741Y-572760D01*
X684259D01*
X686690Y-572108D01*
X688870Y-570850D01*
X690650Y-569070D01*
X691908Y-566890D01*
X692560Y-564459D01*
Y-561941D01*
X691908Y-559510D01*
X690650Y-557330D01*
X688870Y-555550D01*
X686690Y-554291D01*
X684259Y-553640D01*
X681741D01*
X679310Y-554291D01*
X677130Y-555550D01*
X675350Y-557330D01*
X674091Y-559510D01*
X673440Y-561941D01*
Y-564459D01*
X673483Y-564617D01*
X672344Y-565275D01*
X659410Y-552341D01*
Y-550411D01*
X658639Y-547534D01*
X657150Y-544955D01*
X655044Y-542850D01*
X652466Y-541361D01*
X649589Y-540590D01*
X647659D01*
X633650Y-526581D01*
X632058Y-525359D01*
X630920Y-524888D01*
X630827Y-523475D01*
X630870Y-523450D01*
X632650Y-521670D01*
X633909Y-519490D01*
X634560Y-517059D01*
Y-514541D01*
X633909Y-512110D01*
X632650Y-509930D01*
X630870Y-508150D01*
X628690Y-506892D01*
X626259Y-506240D01*
X623741D01*
X621310Y-506892D01*
X619130Y-508150D01*
X617350Y-509930D01*
X616091Y-512110D01*
X615440Y-514541D01*
Y-517059D01*
X616091Y-519490D01*
X617350Y-521670D01*
X618740Y-523059D01*
X618213Y-524329D01*
X479399D01*
X467869Y-512800D01*
X507178Y-473491D01*
X508400Y-471899D01*
X509168Y-470046D01*
X509429Y-468056D01*
Y-453290D01*
X509650Y-453070D01*
X510909Y-450890D01*
X511560Y-448459D01*
Y-445941D01*
X510909Y-443510D01*
X509650Y-441330D01*
X507870Y-439550D01*
X505690Y-438292D01*
X503259Y-437640D01*
X500741D01*
X498310Y-438292D01*
X496130Y-439550D01*
X494350Y-441330D01*
X493092Y-443510D01*
X492440Y-445941D01*
Y-448459D01*
X493092Y-450890D01*
X494058Y-452564D01*
Y-464873D01*
X455672Y-503259D01*
X453310Y-503891D01*
X451636Y-504858D01*
X447927D01*
X375310Y-432241D01*
Y-430311D01*
X374539Y-427435D01*
X373050Y-424855D01*
X370945Y-422750D01*
X368366Y-421261D01*
X365489Y-420490D01*
X362511D01*
X359635Y-421261D01*
X357056Y-422750D01*
X354950Y-424855D01*
X353461Y-427435D01*
X352690Y-430311D01*
Y-433289D01*
X353461Y-436166D01*
X354950Y-438745D01*
X357056Y-440850D01*
X359635Y-442339D01*
X362511Y-443110D01*
X364441D01*
X366123Y-444792D01*
X365603Y-445693D01*
X365425Y-445890D01*
X362511D01*
X359635Y-446661D01*
X357056Y-448150D01*
X354950Y-450256D01*
X353461Y-452835D01*
X352690Y-455711D01*
Y-458689D01*
X353461Y-461566D01*
X354950Y-464145D01*
X357056Y-466250D01*
X359635Y-467739D01*
X362511Y-468510D01*
X365489D01*
X368366Y-467739D01*
X370945Y-466250D01*
X373050Y-464145D01*
X374539Y-461566D01*
X375310Y-458689D01*
Y-455775D01*
X375507Y-455597D01*
X376408Y-455077D01*
X439309Y-517978D01*
X439309Y-517978D01*
X439428Y-518069D01*
X439638Y-519595D01*
X439591Y-519718D01*
X438424Y-521240D01*
X437656Y-523093D01*
X437394Y-525083D01*
Y-703480D01*
X437656Y-705469D01*
X438424Y-707323D01*
X439645Y-708915D01*
X462323Y-731592D01*
X461803Y-732493D01*
X461625Y-732690D01*
X458711D01*
X455835Y-733461D01*
X453256Y-734950D01*
X451150Y-737056D01*
X449661Y-739634D01*
X448890Y-742511D01*
Y-745489D01*
X449661Y-748365D01*
X451150Y-750945D01*
X453256Y-753050D01*
X455835Y-754539D01*
X458711Y-755310D01*
X461689D01*
X464566Y-754539D01*
X467145Y-753050D01*
X469250Y-750945D01*
X470739Y-748365D01*
X471510Y-745489D01*
Y-742575D01*
X471707Y-742397D01*
X472608Y-741877D01*
X474290Y-743559D01*
Y-745489D01*
X475061Y-748365D01*
X476550Y-750945D01*
X478656Y-753050D01*
X481235Y-754539D01*
X484111Y-755310D01*
X487089D01*
X489966Y-754539D01*
X492545Y-753050D01*
X494650Y-750945D01*
X496139Y-748365D01*
X496910Y-745489D01*
Y-742511D01*
X496139Y-739634D01*
X494650Y-737056D01*
X492545Y-734950D01*
X489966Y-733461D01*
X487089Y-732690D01*
X485159D01*
X452766Y-700296D01*
Y-676224D01*
X453939Y-675738D01*
X454035Y-675834D01*
X456325Y-677156D01*
X457660Y-677514D01*
Y-667800D01*
Y-658086D01*
X456325Y-658444D01*
X454035Y-659766D01*
X453939Y-659862D01*
X452766Y-659376D01*
Y-528266D01*
X457181Y-523851D01*
X470780Y-537450D01*
X470780Y-537450D01*
X472372Y-538671D01*
X474226Y-539439D01*
X476215Y-539701D01*
X559688D01*
X560590Y-540590D01*
X560590Y-540971D01*
Y-563210D01*
X583210D01*
Y-540971D01*
X583210Y-540590D01*
X584112Y-539701D01*
X625032D01*
X636790Y-551459D01*
Y-553389D01*
X637561Y-556265D01*
X639050Y-558844D01*
X641155Y-560950D01*
X643735Y-562439D01*
X646611Y-563210D01*
X648541D01*
X650223Y-564892D01*
X649703Y-565793D01*
X649525Y-565990D01*
X646611D01*
X643735Y-566761D01*
X641155Y-568250D01*
X639050Y-570355D01*
X637561Y-572934D01*
X636790Y-575811D01*
Y-578789D01*
X637561Y-581665D01*
X639050Y-584244D01*
X641155Y-586350D01*
X643735Y-587839D01*
X646611Y-588610D01*
X649589D01*
X652466Y-587839D01*
X655044Y-586350D01*
X657150Y-584244D01*
X658639Y-581665D01*
X659410Y-578789D01*
Y-575875D01*
X659607Y-575697D01*
X660508Y-575177D01*
X746985Y-661655D01*
X748577Y-662876D01*
X750431Y-663644D01*
X752420Y-663906D01*
X902670D01*
X904660Y-663644D01*
X906513Y-662876D01*
X908105Y-661655D01*
X917405Y-652355D01*
X917611Y-652410D01*
X920589D01*
X923465Y-651639D01*
X926044Y-650150D01*
X928150Y-648045D01*
X929639Y-645465D01*
X930410Y-642589D01*
Y-640659D01*
X952435Y-618635D01*
X953656Y-617043D01*
X954424Y-615189D01*
X954686Y-613200D01*
Y-144000D01*
X954424Y-142011D01*
X953656Y-140157D01*
X952435Y-138566D01*
X930369Y-116500D01*
X930560Y-115785D01*
Y-112215D01*
X929636Y-108766D01*
X927851Y-105674D01*
X925326Y-103149D01*
X922234Y-101364D01*
X918785Y-100440D01*
X915215D01*
X914501Y-100632D01*
X852814Y-38945D01*
X851223Y-37724D01*
X849369Y-36956D01*
X847380Y-36694D01*
D02*
G37*
G36*
X381290Y-567740D02*
X375540D01*
Y-573490D01*
X381290D01*
Y-567740D01*
D02*
G37*
G36*
X370460D02*
X364710D01*
Y-573490D01*
X370460D01*
Y-567740D01*
D02*
G37*
G36*
X878014Y-567440D02*
X870840D01*
Y-574614D01*
X872175Y-574256D01*
X874465Y-572934D01*
X876334Y-571065D01*
X877656Y-568775D01*
X878014Y-567440D01*
D02*
G37*
G36*
X865760D02*
X858586D01*
X858944Y-568775D01*
X860266Y-571065D01*
X862135Y-572934D01*
X864425Y-574256D01*
X865760Y-574614D01*
Y-567440D01*
D02*
G37*
G36*
X930410Y-553590D02*
X907790D01*
Y-576210D01*
X930410D01*
Y-553590D01*
D02*
G37*
G36*
X895189D02*
X892211D01*
X889334Y-554361D01*
X886756Y-555850D01*
X884650Y-557956D01*
X883161Y-560535D01*
X882390Y-563411D01*
Y-566389D01*
X883161Y-569266D01*
X884650Y-571844D01*
X886756Y-573950D01*
X889334Y-575439D01*
X892211Y-576210D01*
X895189D01*
X898065Y-575439D01*
X900645Y-573950D01*
X902750Y-571844D01*
X904239Y-569266D01*
X905010Y-566389D01*
Y-563411D01*
X904239Y-560535D01*
X902750Y-557956D01*
X900645Y-555850D01*
X898065Y-554361D01*
X895189Y-553590D01*
D02*
G37*
G36*
X119770Y-574968D02*
Y-580330D01*
X125132D01*
X124955Y-579670D01*
X123864Y-577780D01*
X122320Y-576236D01*
X120430Y-575145D01*
X119770Y-574968D01*
D02*
G37*
G36*
X114690D02*
X114030Y-575145D01*
X112140Y-576236D01*
X110596Y-577780D01*
X109505Y-579670D01*
X109328Y-580330D01*
X114690D01*
Y-574968D01*
D02*
G37*
G36*
X324810Y-561690D02*
X305190D01*
Y-581310D01*
X324810D01*
Y-561690D01*
D02*
G37*
G36*
X573389Y-565990D02*
X570411D01*
X567534Y-566761D01*
X564955Y-568250D01*
X562850Y-570355D01*
X561361Y-572934D01*
X560590Y-575811D01*
Y-578789D01*
X561361Y-581665D01*
X562850Y-584244D01*
X564955Y-586350D01*
X567534Y-587839D01*
X570411Y-588610D01*
X573389D01*
X576265Y-587839D01*
X578844Y-586350D01*
X580950Y-584244D01*
X582439Y-581665D01*
X583210Y-578789D01*
Y-575811D01*
X582439Y-572934D01*
X580950Y-570355D01*
X578844Y-568250D01*
X576265Y-566761D01*
X573389Y-565990D01*
D02*
G37*
G36*
X125132Y-585410D02*
X119770D01*
Y-590772D01*
X120430Y-590595D01*
X122320Y-589504D01*
X123864Y-587960D01*
X124955Y-586070D01*
X125132Y-585410D01*
D02*
G37*
G36*
X114690D02*
X109328D01*
X109505Y-586070D01*
X110596Y-587960D01*
X112140Y-589504D01*
X114030Y-590595D01*
X114690Y-590772D01*
Y-585410D01*
D02*
G37*
G36*
X476140Y-585510D02*
X470140D01*
Y-591510D01*
X476140D01*
Y-585510D01*
D02*
G37*
G36*
X465060D02*
X459060D01*
Y-591510D01*
X465060D01*
Y-585510D01*
D02*
G37*
G36*
X195730Y-570180D02*
X175110D01*
Y-590800D01*
X181749D01*
X181931Y-592066D01*
X179869Y-593256D01*
X178186Y-594939D01*
X176996Y-597001D01*
X176742Y-597950D01*
X185420D01*
X194098D01*
X193844Y-597001D01*
X192654Y-594939D01*
X190971Y-593256D01*
X188909Y-592066D01*
X189091Y-590800D01*
X195730D01*
Y-570180D01*
D02*
G37*
G36*
X476140Y-596590D02*
X470140D01*
Y-602590D01*
X476140D01*
Y-596590D01*
D02*
G37*
G36*
X465060D02*
X459060D01*
Y-602590D01*
X465060D01*
Y-596590D01*
D02*
G37*
G36*
X519692Y-584240D02*
X517108D01*
X514613Y-584909D01*
X512377Y-586200D01*
X510550Y-588027D01*
X509258Y-590263D01*
X508590Y-592758D01*
Y-595341D01*
X509258Y-597836D01*
X510550Y-600074D01*
X512377Y-601900D01*
X514613Y-603191D01*
X517108Y-603860D01*
X519692D01*
X522187Y-603191D01*
X524423Y-601900D01*
X526250Y-600074D01*
X527542Y-597836D01*
X528210Y-595341D01*
Y-592758D01*
X527542Y-590263D01*
X526250Y-588027D01*
X524423Y-586200D01*
X522187Y-584909D01*
X519692Y-584240D01*
D02*
G37*
G36*
X494291D02*
X491708D01*
X489213Y-584909D01*
X486977Y-586200D01*
X485150Y-588027D01*
X483858Y-590263D01*
X483190Y-592758D01*
Y-595341D01*
X483858Y-597836D01*
X485150Y-600074D01*
X486977Y-601900D01*
X489213Y-603191D01*
X491708Y-603860D01*
X494291D01*
X496786Y-603191D01*
X499024Y-601900D01*
X500850Y-600074D01*
X502141Y-597836D01*
X502810Y-595341D01*
Y-592758D01*
X502141Y-590263D01*
X500850Y-588027D01*
X499024Y-586200D01*
X496786Y-584909D01*
X494291Y-584240D01*
D02*
G37*
G36*
X316292Y-586690D02*
X313708D01*
X311213Y-587359D01*
X308976Y-588650D01*
X307150Y-590476D01*
X305858Y-592714D01*
X305190Y-595209D01*
Y-597791D01*
X305858Y-600286D01*
X307150Y-602523D01*
X308976Y-604350D01*
X311213Y-605642D01*
X313708Y-606310D01*
X316292D01*
X318787Y-605642D01*
X321023Y-604350D01*
X322850Y-602523D01*
X324142Y-600286D01*
X324810Y-597791D01*
Y-595209D01*
X324142Y-592714D01*
X322850Y-590476D01*
X321023Y-588650D01*
X318787Y-587359D01*
X316292Y-586690D01*
D02*
G37*
G36*
X194098Y-603030D02*
X187960D01*
Y-609168D01*
X188909Y-608914D01*
X190971Y-607724D01*
X192654Y-606041D01*
X193844Y-603979D01*
X194098Y-603030D01*
D02*
G37*
G36*
X182880D02*
X176742D01*
X176996Y-603979D01*
X178186Y-606041D01*
X179869Y-607724D01*
X181931Y-608914D01*
X182880Y-609168D01*
Y-603030D01*
D02*
G37*
G36*
X649589Y-591390D02*
X646611D01*
X643735Y-592161D01*
X641155Y-593650D01*
X639050Y-595756D01*
X637561Y-598335D01*
X636790Y-601211D01*
Y-604189D01*
X637561Y-607066D01*
X639050Y-609645D01*
X641155Y-611750D01*
X643735Y-613239D01*
X646611Y-614010D01*
X649589D01*
X652466Y-613239D01*
X655044Y-611750D01*
X657150Y-609645D01*
X658639Y-607066D01*
X659410Y-604189D01*
Y-601211D01*
X658639Y-598335D01*
X657150Y-595756D01*
X655044Y-593650D01*
X652466Y-592161D01*
X649589Y-591390D01*
D02*
G37*
G36*
X573389D02*
X570411D01*
X567534Y-592161D01*
X564955Y-593650D01*
X562850Y-595756D01*
X561361Y-598335D01*
X560590Y-601211D01*
Y-604189D01*
X561361Y-607066D01*
X562850Y-609645D01*
X564955Y-611750D01*
X567534Y-613239D01*
X570411Y-614010D01*
X573389D01*
X576265Y-613239D01*
X578844Y-611750D01*
X580950Y-609645D01*
X582439Y-607066D01*
X583210Y-604189D01*
Y-601211D01*
X582439Y-598335D01*
X580950Y-595756D01*
X578844Y-593650D01*
X576265Y-592161D01*
X573389Y-591390D01*
D02*
G37*
G36*
X284130Y-598460D02*
X264510D01*
Y-618080D01*
X284130D01*
Y-598460D01*
D02*
G37*
G36*
X250611D02*
X248029D01*
X245534Y-599128D01*
X243297Y-600420D01*
X241470Y-602247D01*
X240179Y-604483D01*
X239510Y-606978D01*
Y-609562D01*
X240179Y-612057D01*
X241470Y-614294D01*
X243297Y-616120D01*
X245534Y-617411D01*
X248029Y-618080D01*
X250611D01*
X253106Y-617411D01*
X255343Y-616120D01*
X257170Y-614294D01*
X258461Y-612057D01*
X259130Y-609562D01*
Y-606978D01*
X258461Y-604483D01*
X257170Y-602247D01*
X255343Y-600420D01*
X253106Y-599128D01*
X250611Y-598460D01*
D02*
G37*
G36*
X574440Y-618386D02*
Y-625560D01*
X581614D01*
X581256Y-624225D01*
X579934Y-621935D01*
X578065Y-620066D01*
X575775Y-618744D01*
X574440Y-618386D01*
D02*
G37*
G36*
X569360D02*
X568025Y-618744D01*
X565735Y-620066D01*
X563866Y-621935D01*
X562544Y-624225D01*
X562186Y-625560D01*
X569360D01*
Y-618386D01*
D02*
G37*
G36*
X691290Y-620510D02*
X685540D01*
Y-626260D01*
X691290D01*
Y-620510D01*
D02*
G37*
G36*
X680460D02*
X674710D01*
Y-626260D01*
X680460D01*
Y-620510D01*
D02*
G37*
G36*
X806259Y-617240D02*
X803741D01*
X801310Y-617892D01*
X799130Y-619150D01*
X797350Y-620930D01*
X796092Y-623110D01*
X795440Y-625541D01*
Y-628059D01*
X796092Y-630490D01*
X797350Y-632670D01*
X799130Y-634450D01*
X801310Y-635709D01*
X803741Y-636360D01*
X806259D01*
X808690Y-635709D01*
X810870Y-634450D01*
X812650Y-632670D01*
X813908Y-630490D01*
X814560Y-628059D01*
Y-625541D01*
X813908Y-623110D01*
X812650Y-620930D01*
X810870Y-619150D01*
X808690Y-617892D01*
X806259Y-617240D01*
D02*
G37*
G36*
X774560D02*
X755440D01*
Y-636360D01*
X774560D01*
Y-617240D01*
D02*
G37*
G36*
X691290Y-631340D02*
X685540D01*
Y-637090D01*
X691290D01*
Y-631340D01*
D02*
G37*
G36*
X680460D02*
X674710D01*
Y-637090D01*
X680460D01*
Y-631340D01*
D02*
G37*
G36*
X581614Y-630640D02*
X574440D01*
Y-637814D01*
X575775Y-637456D01*
X578065Y-636134D01*
X579934Y-634265D01*
X581256Y-631975D01*
X581614Y-630640D01*
D02*
G37*
G36*
X569360D02*
X562186D01*
X562544Y-631975D01*
X563866Y-634265D01*
X565735Y-636134D01*
X568025Y-637456D01*
X569360Y-637814D01*
Y-630640D01*
D02*
G37*
G36*
X845440Y-631386D02*
Y-638560D01*
X852614D01*
X852256Y-637225D01*
X850934Y-634935D01*
X849065Y-633066D01*
X846775Y-631744D01*
X845440Y-631386D01*
D02*
G37*
G36*
X840360D02*
X839025Y-631744D01*
X836735Y-633066D01*
X834866Y-634935D01*
X833544Y-637225D01*
X833186Y-638560D01*
X840360D01*
Y-631386D01*
D02*
G37*
G36*
X649589Y-616790D02*
X646611D01*
X643735Y-617561D01*
X641155Y-619050D01*
X639050Y-621156D01*
X637561Y-623735D01*
X636790Y-626611D01*
Y-629589D01*
X637561Y-632466D01*
X639050Y-635045D01*
X641155Y-637150D01*
X643735Y-638639D01*
X646611Y-639410D01*
X649589D01*
X652466Y-638639D01*
X655044Y-637150D01*
X657150Y-635045D01*
X658639Y-632466D01*
X659410Y-629589D01*
Y-626611D01*
X658639Y-623735D01*
X657150Y-621156D01*
X655044Y-619050D01*
X652466Y-617561D01*
X649589Y-616790D01*
D02*
G37*
G36*
X374259Y-621240D02*
X371741D01*
X369310Y-621892D01*
X367130Y-623150D01*
X365350Y-624930D01*
X364091Y-627110D01*
X363440Y-629541D01*
Y-632059D01*
X364091Y-634490D01*
X365350Y-636670D01*
X367130Y-638450D01*
X369310Y-639709D01*
X371741Y-640360D01*
X374259D01*
X376690Y-639709D01*
X378870Y-638450D01*
X380650Y-636670D01*
X381908Y-634490D01*
X382560Y-632059D01*
Y-629541D01*
X381908Y-627110D01*
X380650Y-624930D01*
X378870Y-623150D01*
X376690Y-621892D01*
X374259Y-621240D01*
D02*
G37*
G36*
X57139Y-621790D02*
X54621D01*
X52190Y-622441D01*
X50010Y-623700D01*
X48230Y-625480D01*
X46972Y-627660D01*
X46320Y-630091D01*
Y-632609D01*
X46972Y-635040D01*
X48230Y-637220D01*
X50010Y-639000D01*
X52190Y-640258D01*
X54621Y-640910D01*
X57139D01*
X59570Y-640258D01*
X61750Y-639000D01*
X63530Y-637220D01*
X64788Y-635040D01*
X65440Y-632609D01*
Y-630091D01*
X64788Y-627660D01*
X63530Y-625480D01*
X61750Y-623700D01*
X59570Y-622441D01*
X57139Y-621790D01*
D02*
G37*
G36*
X120639Y-623060D02*
X118121D01*
X115690Y-623712D01*
X113510Y-624970D01*
X111730Y-626750D01*
X110471Y-628930D01*
X109820Y-631361D01*
Y-633879D01*
X110471Y-636310D01*
X111730Y-638490D01*
X113510Y-640270D01*
X115690Y-641528D01*
X118121Y-642180D01*
X120639D01*
X123070Y-641528D01*
X125250Y-640270D01*
X127030Y-638490D01*
X128288Y-636310D01*
X128940Y-633879D01*
Y-631361D01*
X128288Y-628930D01*
X127030Y-626750D01*
X125250Y-624970D01*
X123070Y-623712D01*
X120639Y-623060D01*
D02*
G37*
G36*
X318259Y-640640D02*
X315741D01*
X313310Y-641292D01*
X311130Y-642550D01*
X309350Y-644330D01*
X308092Y-646510D01*
X307440Y-648941D01*
Y-651459D01*
X308092Y-653890D01*
X309350Y-656070D01*
X311130Y-657850D01*
X313310Y-659109D01*
X315741Y-659760D01*
X318259D01*
X320690Y-659109D01*
X322870Y-657850D01*
X324650Y-656070D01*
X325909Y-653890D01*
X326560Y-651459D01*
Y-648941D01*
X325909Y-646510D01*
X324650Y-644330D01*
X322870Y-642550D01*
X320690Y-641292D01*
X318259Y-640640D01*
D02*
G37*
G36*
X513540Y-658086D02*
Y-665260D01*
X520714D01*
X520356Y-663925D01*
X519034Y-661635D01*
X517165Y-659766D01*
X514875Y-658444D01*
X513540Y-658086D01*
D02*
G37*
G36*
X462740D02*
Y-665260D01*
X469914D01*
X469556Y-663925D01*
X468234Y-661635D01*
X466365Y-659766D01*
X464075Y-658444D01*
X462740Y-658086D01*
D02*
G37*
G36*
X508460D02*
X507125Y-658444D01*
X504835Y-659766D01*
X502966Y-661635D01*
X501644Y-663925D01*
X501286Y-665260D01*
X508460D01*
Y-658086D01*
D02*
G37*
G36*
X183440Y-661186D02*
Y-668360D01*
X190614D01*
X190256Y-667025D01*
X188934Y-664735D01*
X187065Y-662866D01*
X184775Y-661544D01*
X183440Y-661186D01*
D02*
G37*
G36*
X178360D02*
X177025Y-661544D01*
X174735Y-662866D01*
X172866Y-664735D01*
X171544Y-667025D01*
X171186Y-668360D01*
X178360D01*
Y-661186D01*
D02*
G37*
G36*
X520714Y-670340D02*
X513540D01*
Y-677514D01*
X514875Y-677156D01*
X517165Y-675834D01*
X519034Y-673965D01*
X520356Y-671675D01*
X520714Y-670340D01*
D02*
G37*
G36*
X469914D02*
X462740D01*
Y-677514D01*
X464075Y-677156D01*
X466365Y-675834D01*
X468234Y-673965D01*
X469556Y-671675D01*
X469914Y-670340D01*
D02*
G37*
G36*
X508460D02*
X501286D01*
X501644Y-671675D01*
X502966Y-673965D01*
X504835Y-675834D01*
X507125Y-677156D01*
X508460Y-677514D01*
Y-670340D01*
D02*
G37*
G36*
X547710Y-656490D02*
X525090D01*
Y-679110D01*
X547710D01*
Y-656490D01*
D02*
G37*
G36*
X487089D02*
X484111D01*
X481235Y-657261D01*
X478656Y-658750D01*
X476550Y-660855D01*
X475061Y-663435D01*
X474290Y-666311D01*
Y-669289D01*
X475061Y-672166D01*
X476550Y-674744D01*
X478656Y-676850D01*
X481235Y-678339D01*
X484111Y-679110D01*
X487089D01*
X489966Y-678339D01*
X492545Y-676850D01*
X494650Y-674744D01*
X496139Y-672166D01*
X496910Y-669289D01*
Y-666311D01*
X496139Y-663435D01*
X494650Y-660855D01*
X492545Y-658750D01*
X489966Y-657261D01*
X487089Y-656490D01*
D02*
G37*
G36*
X190614Y-673440D02*
X183440D01*
Y-680614D01*
X184775Y-680256D01*
X187065Y-678934D01*
X188934Y-677065D01*
X190256Y-674775D01*
X190614Y-673440D01*
D02*
G37*
G36*
X178360D02*
X171186D01*
X171544Y-674775D01*
X172866Y-677065D01*
X174735Y-678934D01*
X177025Y-680256D01*
X178360Y-680614D01*
Y-673440D01*
D02*
G37*
G36*
X268410Y-659590D02*
X245790D01*
Y-682210D01*
X268410D01*
Y-659590D01*
D02*
G37*
G36*
X233189D02*
X230211D01*
X227334Y-660361D01*
X224755Y-661850D01*
X222650Y-663956D01*
X221161Y-666535D01*
X220390Y-669411D01*
Y-672389D01*
X221161Y-675266D01*
X222650Y-677844D01*
X224755Y-679950D01*
X227334Y-681439D01*
X230211Y-682210D01*
X233189D01*
X236066Y-681439D01*
X238645Y-679950D01*
X240750Y-677844D01*
X242239Y-675266D01*
X243010Y-672389D01*
Y-669411D01*
X242239Y-666535D01*
X240750Y-663956D01*
X238645Y-661850D01*
X236066Y-660361D01*
X233189Y-659590D01*
D02*
G37*
G36*
X207789D02*
X204811D01*
X201935Y-660361D01*
X199356Y-661850D01*
X197250Y-663956D01*
X195761Y-666535D01*
X194990Y-669411D01*
Y-672389D01*
X195761Y-675266D01*
X197250Y-677844D01*
X199356Y-679950D01*
X201935Y-681439D01*
X204811Y-682210D01*
X207789D01*
X210665Y-681439D01*
X213244Y-679950D01*
X215350Y-677844D01*
X216839Y-675266D01*
X217610Y-672389D01*
Y-669411D01*
X216839Y-666535D01*
X215350Y-663956D01*
X213244Y-661850D01*
X210665Y-660361D01*
X207789Y-659590D01*
D02*
G37*
G36*
X375291Y-667690D02*
X372709D01*
X370214Y-668359D01*
X367976Y-669650D01*
X366150Y-671477D01*
X364859Y-673714D01*
X364190Y-676208D01*
Y-678792D01*
X364859Y-681286D01*
X366150Y-683523D01*
X367976Y-685350D01*
X370214Y-686641D01*
X372709Y-687310D01*
X375291D01*
X377786Y-686641D01*
X380023Y-685350D01*
X381850Y-683523D01*
X383141Y-681286D01*
X383810Y-678792D01*
Y-676208D01*
X383141Y-673714D01*
X381850Y-671477D01*
X380023Y-669650D01*
X377786Y-668359D01*
X375291Y-667690D01*
D02*
G37*
G36*
X826292Y-674060D02*
X823708D01*
X821214Y-674728D01*
X818977Y-676020D01*
X817150Y-677847D01*
X815859Y-680083D01*
X815190Y-682579D01*
Y-685162D01*
X815859Y-687656D01*
X817150Y-689893D01*
X818977Y-691720D01*
X821214Y-693011D01*
X823708Y-693680D01*
X826292D01*
X828786Y-693011D01*
X831023Y-691720D01*
X832850Y-689893D01*
X834141Y-687656D01*
X834810Y-685162D01*
Y-682579D01*
X834141Y-680083D01*
X832850Y-677847D01*
X831023Y-676020D01*
X828786Y-674728D01*
X826292Y-674060D01*
D02*
G37*
G36*
X883560Y-680640D02*
X864440D01*
Y-699760D01*
X883560D01*
Y-680640D01*
D02*
G37*
G36*
X929560Y-681640D02*
X910440D01*
Y-700760D01*
X929560D01*
Y-681640D01*
D02*
G37*
G36*
X128940Y-688660D02*
X109820D01*
Y-707780D01*
X128940D01*
Y-688660D01*
D02*
G37*
G36*
X383810Y-692690D02*
X364190D01*
Y-712310D01*
X383810D01*
Y-692690D01*
D02*
G37*
G36*
X777310Y-691690D02*
X756690D01*
Y-712310D01*
X763329D01*
X763511Y-713576D01*
X761449Y-714766D01*
X759766Y-716449D01*
X758576Y-718511D01*
X758322Y-719460D01*
X767000D01*
X775678D01*
X775424Y-718511D01*
X774234Y-716449D01*
X772551Y-714766D01*
X770489Y-713576D01*
X770671Y-712310D01*
X777310D01*
Y-691690D01*
D02*
G37*
G36*
X609310Y-692690D02*
X588690D01*
Y-713310D01*
X595329D01*
X595511Y-714576D01*
X593449Y-715766D01*
X591766Y-717449D01*
X590576Y-719511D01*
X590322Y-720460D01*
X599000D01*
X607678D01*
X607424Y-719511D01*
X606234Y-717449D01*
X604551Y-715766D01*
X602489Y-714576D01*
X602671Y-713310D01*
X609310D01*
Y-692690D01*
D02*
G37*
G36*
X326560Y-706240D02*
X307440D01*
Y-725360D01*
X326560D01*
Y-706240D01*
D02*
G37*
G36*
X683310Y-689690D02*
X662690D01*
Y-710310D01*
X666624D01*
X666964Y-711580D01*
X666669Y-711750D01*
X664750Y-713670D01*
X663393Y-716021D01*
X662690Y-718643D01*
Y-721357D01*
X663393Y-723979D01*
X664750Y-726330D01*
X666669Y-728250D01*
X669020Y-729607D01*
X671643Y-730310D01*
X674357D01*
X676980Y-729607D01*
X679331Y-728250D01*
X681250Y-726330D01*
X682607Y-723979D01*
X683310Y-721357D01*
Y-718643D01*
X682607Y-716021D01*
X681250Y-713670D01*
X679331Y-711750D01*
X679036Y-711580D01*
X679377Y-710310D01*
X683310D01*
Y-689690D01*
D02*
G37*
G36*
X764460Y-724540D02*
X758322D01*
X758576Y-725489D01*
X759766Y-727551D01*
X761449Y-729234D01*
X763511Y-730424D01*
X764460Y-730678D01*
Y-724540D01*
D02*
G37*
G36*
X775678D02*
X769540D01*
Y-730678D01*
X770489Y-730424D01*
X772551Y-729234D01*
X774234Y-727551D01*
X775424Y-725489D01*
X775678Y-724540D01*
D02*
G37*
G36*
X596460Y-725540D02*
X590322D01*
X590576Y-726489D01*
X591766Y-728551D01*
X593449Y-730234D01*
X595511Y-731424D01*
X596460Y-731678D01*
Y-725540D01*
D02*
G37*
G36*
X607678D02*
X601540D01*
Y-731678D01*
X602489Y-731424D01*
X604551Y-730234D01*
X606234Y-728551D01*
X607424Y-726489D01*
X607678Y-725540D01*
D02*
G37*
G36*
X537889Y-732690D02*
X534911D01*
X532034Y-733461D01*
X529455Y-734950D01*
X527350Y-737056D01*
X525861Y-739634D01*
X525090Y-742511D01*
Y-745489D01*
X525861Y-748365D01*
X527350Y-750945D01*
X529455Y-753050D01*
X532034Y-754539D01*
X534911Y-755310D01*
X537889D01*
X540765Y-754539D01*
X543344Y-753050D01*
X545450Y-750945D01*
X546939Y-748365D01*
X547710Y-745489D01*
Y-742511D01*
X546939Y-739634D01*
X545450Y-737056D01*
X543344Y-734950D01*
X540765Y-733461D01*
X537889Y-732690D01*
D02*
G37*
G36*
X512489D02*
X509511D01*
X506634Y-733461D01*
X504055Y-734950D01*
X501950Y-737056D01*
X500461Y-739634D01*
X499690Y-742511D01*
Y-745489D01*
X500461Y-748365D01*
X501950Y-750945D01*
X504055Y-753050D01*
X506634Y-754539D01*
X509511Y-755310D01*
X512489D01*
X515365Y-754539D01*
X517944Y-753050D01*
X520050Y-750945D01*
X521539Y-748365D01*
X522310Y-745489D01*
Y-742511D01*
X521539Y-739634D01*
X520050Y-737056D01*
X517944Y-734950D01*
X515365Y-733461D01*
X512489Y-732690D01*
D02*
G37*
G36*
X207789Y-735790D02*
X204811D01*
X201935Y-736561D01*
X199356Y-738050D01*
X197250Y-740155D01*
X195761Y-742735D01*
X194990Y-745611D01*
Y-748589D01*
X195761Y-751466D01*
X197250Y-754044D01*
X199356Y-756150D01*
X201935Y-757639D01*
X204811Y-758410D01*
X207789D01*
X210665Y-757639D01*
X213244Y-756150D01*
X215350Y-754044D01*
X216839Y-751466D01*
X217610Y-748589D01*
Y-745611D01*
X216839Y-742735D01*
X215350Y-740155D01*
X213244Y-738050D01*
X210665Y-736561D01*
X207789Y-735790D01*
D02*
G37*
G36*
X182389D02*
X179411D01*
X176535Y-736561D01*
X173955Y-738050D01*
X171850Y-740155D01*
X170361Y-742735D01*
X169590Y-745611D01*
Y-748589D01*
X170361Y-751466D01*
X171850Y-754044D01*
X173955Y-756150D01*
X176535Y-757639D01*
X179411Y-758410D01*
X182389D01*
X185266Y-757639D01*
X187845Y-756150D01*
X189950Y-754044D01*
X191439Y-751466D01*
X192210Y-748589D01*
Y-745611D01*
X191439Y-742735D01*
X189950Y-740155D01*
X187845Y-738050D01*
X185266Y-736561D01*
X182389Y-735790D01*
D02*
G37*
G36*
X65440Y-739900D02*
X46320D01*
Y-759020D01*
X65440D01*
Y-739900D01*
D02*
G37*
G36*
X388160Y-743440D02*
X369040D01*
Y-762560D01*
X388160D01*
Y-743440D01*
D02*
G37*
G36*
X314259D02*
X311741D01*
X309310Y-744091D01*
X307130Y-745350D01*
X305350Y-747130D01*
X304091Y-749310D01*
X303440Y-751741D01*
Y-754259D01*
X304091Y-756690D01*
X305350Y-758870D01*
X307130Y-760650D01*
X309310Y-761908D01*
X311741Y-762560D01*
X314259D01*
X316690Y-761908D01*
X318870Y-760650D01*
X320650Y-758870D01*
X321908Y-756690D01*
X322560Y-754259D01*
Y-751741D01*
X321908Y-749310D01*
X320650Y-747130D01*
X318870Y-745350D01*
X316690Y-744091D01*
X314259Y-743440D01*
D02*
G37*
G36*
X875259Y-746240D02*
X872741D01*
X870310Y-746891D01*
X868130Y-748150D01*
X866350Y-749930D01*
X865091Y-752110D01*
X864440Y-754541D01*
Y-757059D01*
X865091Y-759490D01*
X866350Y-761670D01*
X868130Y-763450D01*
X870310Y-764708D01*
X872741Y-765360D01*
X875259D01*
X877690Y-764708D01*
X879870Y-763450D01*
X881650Y-761670D01*
X882908Y-759490D01*
X883560Y-757059D01*
Y-754541D01*
X882908Y-752110D01*
X881650Y-749930D01*
X879870Y-748150D01*
X877690Y-746891D01*
X875259Y-746240D01*
D02*
G37*
G36*
X921259Y-747240D02*
X918741D01*
X916310Y-747891D01*
X914130Y-749150D01*
X912350Y-750930D01*
X911092Y-753110D01*
X910440Y-755541D01*
Y-758059D01*
X911092Y-760490D01*
X912350Y-762670D01*
X914130Y-764450D01*
X916310Y-765708D01*
X918741Y-766360D01*
X921259D01*
X923690Y-765708D01*
X925870Y-764450D01*
X927650Y-762670D01*
X928908Y-760490D01*
X929560Y-758059D01*
Y-755541D01*
X928908Y-753110D01*
X927650Y-750930D01*
X925870Y-749150D01*
X923690Y-747891D01*
X921259Y-747240D01*
D02*
G37*
G36*
X834810Y-750320D02*
X815190D01*
Y-769940D01*
X834810D01*
Y-750320D01*
D02*
G37*
G36*
X639290Y-774610D02*
X633540D01*
Y-780360D01*
X639290D01*
Y-774610D01*
D02*
G37*
G36*
X628460D02*
X622710D01*
Y-780360D01*
X628460D01*
Y-774610D01*
D02*
G37*
G36*
X133000Y-781270D02*
X127000D01*
Y-787270D01*
X133000D01*
Y-781270D01*
D02*
G37*
G36*
X121920D02*
X115920D01*
Y-787270D01*
X121920D01*
Y-781270D01*
D02*
G37*
G36*
X639290Y-785440D02*
X633540D01*
Y-791190D01*
X639290D01*
Y-785440D01*
D02*
G37*
G36*
X628460D02*
X622710D01*
Y-791190D01*
X628460D01*
Y-785440D01*
D02*
G37*
G36*
X591259Y-773340D02*
X588741D01*
X586310Y-773991D01*
X584130Y-775250D01*
X582350Y-777030D01*
X581091Y-779210D01*
X580440Y-781641D01*
Y-784159D01*
X581091Y-786590D01*
X582350Y-788770D01*
X584130Y-790550D01*
X586310Y-791808D01*
X588741Y-792460D01*
X591259D01*
X593690Y-791808D01*
X595870Y-790550D01*
X597650Y-788770D01*
X598909Y-786590D01*
X599560Y-784159D01*
Y-781641D01*
X598909Y-779210D01*
X597650Y-777030D01*
X595870Y-775250D01*
X593690Y-773991D01*
X591259Y-773340D01*
D02*
G37*
G36*
X133000Y-792350D02*
X127000D01*
Y-798350D01*
X133000D01*
Y-792350D01*
D02*
G37*
G36*
X121920D02*
X115920D01*
Y-798350D01*
X121920D01*
Y-792350D01*
D02*
G37*
G36*
X476357Y-783940D02*
X473643D01*
X471021Y-784643D01*
X468670Y-786000D01*
X466750Y-787919D01*
X465393Y-790270D01*
X464690Y-792893D01*
Y-795607D01*
X465393Y-798230D01*
X466750Y-800581D01*
X468670Y-802500D01*
X471021Y-803857D01*
X473643Y-804560D01*
X476357D01*
X478979Y-803857D01*
X481330Y-802500D01*
X483250Y-800581D01*
X484607Y-798230D01*
X485310Y-795607D01*
Y-792893D01*
X484607Y-790270D01*
X483250Y-787919D01*
X481330Y-786000D01*
X478979Y-784643D01*
X476357Y-783940D01*
D02*
G37*
G36*
X683272Y-785940D02*
X680228D01*
X677288Y-786728D01*
X674652Y-788250D01*
X672500Y-790402D01*
X670978Y-793038D01*
X670190Y-795978D01*
Y-799022D01*
X670978Y-801962D01*
X672500Y-804598D01*
X674652Y-806750D01*
X677288Y-808272D01*
X680228Y-809060D01*
X683272D01*
X686212Y-808272D01*
X688848Y-806750D01*
X691000Y-804598D01*
X692522Y-801962D01*
X693310Y-799022D01*
Y-795978D01*
X692522Y-793038D01*
X691000Y-790402D01*
X688848Y-788250D01*
X686212Y-786728D01*
X683272Y-785940D01*
D02*
G37*
G36*
X933360Y-790440D02*
X914240D01*
Y-809560D01*
X933360D01*
Y-790440D01*
D02*
G37*
G36*
X859459D02*
X856941D01*
X854510Y-791092D01*
X852330Y-792350D01*
X850550Y-794130D01*
X849292Y-796310D01*
X848640Y-798741D01*
Y-801259D01*
X849292Y-803690D01*
X850550Y-805870D01*
X852330Y-807650D01*
X854510Y-808908D01*
X856941Y-809560D01*
X859459D01*
X861890Y-808908D01*
X864070Y-807650D01*
X865850Y-805870D01*
X867109Y-803690D01*
X867760Y-801259D01*
Y-798741D01*
X867109Y-796310D01*
X865850Y-794130D01*
X864070Y-792350D01*
X861890Y-791092D01*
X859459Y-790440D01*
D02*
G37*
G36*
X385360Y-798440D02*
X366240D01*
Y-817560D01*
X385360D01*
Y-798440D01*
D02*
G37*
G36*
X311459D02*
X308941D01*
X306510Y-799091D01*
X304330Y-800350D01*
X302550Y-802130D01*
X301292Y-804310D01*
X300640Y-806741D01*
Y-809259D01*
X301292Y-811690D01*
X302550Y-813870D01*
X304330Y-815650D01*
X306510Y-816908D01*
X308941Y-817560D01*
X311459D01*
X313890Y-816908D01*
X316070Y-815650D01*
X317850Y-813870D01*
X319109Y-811690D01*
X319760Y-809259D01*
Y-806741D01*
X319109Y-804310D01*
X317850Y-802130D01*
X316070Y-800350D01*
X313890Y-799091D01*
X311459Y-798440D01*
D02*
G37*
G36*
X260870Y-798500D02*
X241250D01*
Y-818120D01*
X260870D01*
Y-798500D01*
D02*
G37*
G36*
X227351D02*
X224769D01*
X222274Y-799168D01*
X220037Y-800460D01*
X218210Y-802287D01*
X216919Y-804523D01*
X216250Y-807019D01*
Y-809602D01*
X216919Y-812096D01*
X218210Y-814333D01*
X220037Y-816160D01*
X222274Y-817451D01*
X224769Y-818120D01*
X227351D01*
X229846Y-817451D01*
X232083Y-816160D01*
X233910Y-814333D01*
X235201Y-812096D01*
X235870Y-809602D01*
Y-807019D01*
X235201Y-804523D01*
X233910Y-802287D01*
X232083Y-800460D01*
X229846Y-799168D01*
X227351Y-798500D01*
D02*
G37*
G36*
X125751Y-805000D02*
X123168D01*
X120674Y-805668D01*
X118436Y-806960D01*
X116610Y-808786D01*
X115318Y-811023D01*
X114650Y-813519D01*
Y-816102D01*
X115318Y-818596D01*
X116610Y-820834D01*
X118436Y-822660D01*
X120674Y-823951D01*
X123168Y-824620D01*
X125751D01*
X128246Y-823951D01*
X130484Y-822660D01*
X132310Y-820834D01*
X133602Y-818596D01*
X134270Y-816102D01*
Y-813519D01*
X133602Y-811023D01*
X132310Y-808786D01*
X130484Y-806960D01*
X128246Y-805668D01*
X125751Y-805000D01*
D02*
G37*
G36*
X57139Y-805500D02*
X54621D01*
X52190Y-806152D01*
X50010Y-807410D01*
X48230Y-809190D01*
X46972Y-811370D01*
X46320Y-813801D01*
Y-816319D01*
X46972Y-818750D01*
X48230Y-820930D01*
X50010Y-822710D01*
X52190Y-823969D01*
X54621Y-824620D01*
X57139D01*
X59570Y-823969D01*
X61750Y-822710D01*
X63530Y-820930D01*
X64788Y-818750D01*
X65440Y-816319D01*
Y-813801D01*
X64788Y-811370D01*
X63530Y-809190D01*
X61750Y-807410D01*
X59570Y-806152D01*
X57139Y-805500D01*
D02*
G37*
G36*
X554810Y-813440D02*
X535190D01*
Y-833060D01*
X554810D01*
Y-813440D01*
D02*
G37*
G36*
X693310Y-810940D02*
X670190D01*
Y-834060D01*
X693310D01*
Y-810940D01*
D02*
G37*
G36*
X485310Y-818940D02*
X464690D01*
Y-839560D01*
X485310D01*
Y-818940D01*
D02*
G37*
G36*
X598290Y-840210D02*
X592540D01*
Y-845960D01*
X598290D01*
Y-840210D01*
D02*
G37*
G36*
X587460D02*
X581710D01*
Y-845960D01*
X587460D01*
Y-840210D01*
D02*
G37*
G36*
X598290Y-851040D02*
X592540D01*
Y-856790D01*
X598290D01*
Y-851040D01*
D02*
G37*
G36*
X587460D02*
X581710D01*
Y-856790D01*
X587460D01*
Y-851040D01*
D02*
G37*
G36*
X546292Y-838440D02*
X543708D01*
X541213Y-839109D01*
X538977Y-840400D01*
X537150Y-842226D01*
X535858Y-844464D01*
X535190Y-846958D01*
Y-849541D01*
X535858Y-852037D01*
X537150Y-854274D01*
X538977Y-856100D01*
X541213Y-857392D01*
X543708Y-858060D01*
X546292D01*
X548787Y-857392D01*
X551023Y-856100D01*
X552850Y-854274D01*
X554142Y-852037D01*
X554810Y-849541D01*
Y-846958D01*
X554142Y-844464D01*
X552850Y-842226D01*
X551023Y-840400D01*
X548787Y-839109D01*
X546292Y-838440D01*
D02*
G37*
G36*
X632259Y-838940D02*
X629741D01*
X627310Y-839592D01*
X625130Y-840850D01*
X623350Y-842630D01*
X622091Y-844810D01*
X621440Y-847241D01*
Y-849759D01*
X622091Y-852190D01*
X623350Y-854370D01*
X625130Y-856150D01*
X627310Y-857409D01*
X629741Y-858060D01*
X632259D01*
X634690Y-857409D01*
X636870Y-856150D01*
X638650Y-854370D01*
X639908Y-852190D01*
X640560Y-849759D01*
Y-847241D01*
X639908Y-844810D01*
X638650Y-842630D01*
X636870Y-840850D01*
X634690Y-839592D01*
X632259Y-838940D01*
D02*
G37*
G36*
X48951Y-842190D02*
X45049D01*
X41222Y-842951D01*
X37617Y-844445D01*
X34372Y-846613D01*
X31613Y-849372D01*
X29445Y-852616D01*
X27951Y-856222D01*
X27190Y-860049D01*
Y-863951D01*
X27951Y-867778D01*
X29445Y-871384D01*
X31613Y-874628D01*
X34372Y-877387D01*
X37617Y-879555D01*
X41222Y-881049D01*
X45049Y-881810D01*
X48951D01*
X52778Y-881049D01*
X56384Y-879555D01*
X59628Y-877387D01*
X62387Y-874628D01*
X64555Y-871384D01*
X66049Y-867778D01*
X66810Y-863951D01*
Y-860049D01*
X66049Y-856222D01*
X64555Y-852616D01*
X62387Y-849372D01*
X59628Y-846613D01*
X56384Y-844445D01*
X52778Y-842951D01*
X48951Y-842190D01*
D02*
G37*
G36*
X947951Y-845190D02*
X944049D01*
X940222Y-845951D01*
X936616Y-847445D01*
X933372Y-849613D01*
X930613Y-852372D01*
X928445Y-855616D01*
X926951Y-859222D01*
X926190Y-863049D01*
Y-866951D01*
X926951Y-870778D01*
X928445Y-874383D01*
X930613Y-877628D01*
X933372Y-880387D01*
X936616Y-882555D01*
X940222Y-884049D01*
X944049Y-884810D01*
X947951D01*
X951778Y-884049D01*
X955384Y-882555D01*
X958628Y-880387D01*
X961387Y-877628D01*
X963555Y-874383D01*
X965049Y-870778D01*
X965810Y-866951D01*
Y-863049D01*
X965049Y-859222D01*
X963555Y-855616D01*
X961387Y-852372D01*
X958628Y-849613D01*
X955384Y-847445D01*
X951778Y-845951D01*
X947951Y-845190D01*
D02*
G37*
%LPD*%
D21*
X20000Y-93000D02*
D03*
Y-376000D02*
D03*
X815000Y-134000D02*
D03*
X502793Y-67750D02*
D03*
X926000Y-317000D02*
D03*
X681750Y-797500D02*
D03*
X696000Y-263000D02*
D03*
D24*
X139000Y-40000D02*
D03*
X902000Y-29000D02*
D03*
D25*
X374000Y-677500D02*
D03*
X825000Y-683870D02*
D03*
X800870Y-451000D02*
D03*
X880130Y-501000D02*
D03*
X545000Y-848250D02*
D03*
X124460Y-814810D02*
D03*
X249320Y-608270D02*
D03*
X315000Y-596500D02*
D03*
X226060Y-808310D02*
D03*
X595500Y-198000D02*
D03*
X493000Y-594050D02*
D03*
X518400D02*
D03*
D26*
X374000Y-702500D02*
D03*
X467600Y-594050D02*
D03*
X124460Y-789810D02*
D03*
X825000Y-760130D02*
D03*
X545000Y-823250D02*
D03*
X315000Y-571500D02*
D03*
D28*
X120000Y-425000D02*
D03*
X765000Y-561200D02*
D03*
X47200Y-498000D02*
D03*
X117230Y-582870D02*
D03*
X822000Y-318000D02*
D03*
X858200Y-800000D02*
D03*
X920000Y-756800D02*
D03*
X683000Y-563200D02*
D03*
Y-518800D02*
D03*
X625000Y-515800D02*
D03*
X874000Y-755800D02*
D03*
X457000Y-512800D02*
D03*
X805000Y-626800D02*
D03*
X590000Y-782900D02*
D03*
X502000Y-447200D02*
D03*
X313000Y-753000D02*
D03*
X310200Y-808000D02*
D03*
X373000Y-630800D02*
D03*
X55880Y-631350D02*
D03*
X631000Y-848500D02*
D03*
X666000Y-199800D02*
D03*
X764000Y-517800D02*
D03*
X922000Y-450200D02*
D03*
X55880Y-815060D02*
D03*
X119380Y-632620D02*
D03*
X317000Y-650200D02*
D03*
D29*
X54400Y-425000D02*
D03*
X923800Y-800000D02*
D03*
X378600Y-753000D02*
D03*
X375800Y-808000D02*
D03*
X112800Y-498000D02*
D03*
X51630Y-582870D02*
D03*
D30*
X822000Y-383600D02*
D03*
X666000Y-134200D02*
D03*
X683000Y-628800D02*
D03*
X631000Y-782900D02*
D03*
X590000Y-848500D02*
D03*
X373000Y-565200D02*
D03*
X920000Y-691200D02*
D03*
X683000Y-453200D02*
D03*
X625000Y-450200D02*
D03*
X765000Y-626800D02*
D03*
X874000Y-690200D02*
D03*
X457000Y-447200D02*
D03*
X805000Y-561200D02*
D03*
X502000Y-512800D02*
D03*
X55880Y-696950D02*
D03*
X764000Y-452200D02*
D03*
X922000Y-515800D02*
D03*
X55880Y-749460D02*
D03*
X119380Y-698220D02*
D03*
X317000Y-715800D02*
D03*
D32*
X901000Y-317000D02*
D03*
X477793Y-67750D02*
D03*
X671000Y-263000D02*
D03*
D34*
X877130Y-451000D02*
D03*
X803870Y-501000D02*
D03*
X274320Y-608270D02*
D03*
X251060Y-808310D02*
D03*
X620500Y-198000D02*
D03*
D35*
X681750Y-822500D02*
D03*
X815000Y-109000D02*
D03*
D39*
X599000Y-264000D02*
D03*
X767000Y-722000D02*
D03*
X599000Y-723000D02*
D03*
X185420Y-600490D02*
D03*
X673000Y-720000D02*
D03*
X697793Y-78500D02*
D03*
X475000Y-794250D02*
D03*
X599793Y-104250D02*
D03*
X192000Y-451000D02*
D03*
D40*
X673000Y-700000D02*
D03*
X767000Y-702000D02*
D03*
X697793Y-58500D02*
D03*
X475000Y-829250D02*
D03*
X599000Y-703000D02*
D03*
X599793Y-69250D02*
D03*
X192000Y-486000D02*
D03*
X185420Y-580490D02*
D03*
D44*
X823363Y-317000D02*
X901000D01*
D46*
X947000Y-613200D02*
Y-144000D01*
X389620Y-44380D02*
X847380D01*
X917000Y-114000D01*
X947000Y-144000D01*
X815000Y-135000D02*
Y-134000D01*
X913998Y-217002D02*
X917000Y-214000D01*
X848998Y-217002D02*
X913998D01*
X718000Y-348000D02*
X848998Y-217002D01*
X360000Y-74000D02*
X389620Y-44380D01*
X926000Y-317000D02*
Y-223000D01*
X846000Y-398276D02*
X926000Y-318276D01*
Y-317000D01*
X917000Y-214000D02*
X926000Y-223000D01*
X870000Y-164000D02*
X917000D01*
X445080Y-525083D02*
X457000Y-513163D01*
X364000Y-431800D02*
X444744Y-512544D01*
X457000Y-513163D02*
Y-512800D01*
X456744Y-512544D02*
X457000Y-512800D01*
X444744Y-512544D02*
X456744D01*
X330000Y-425000D02*
X407000Y-348000D01*
X360000Y-74000D02*
X485374Y-199374D01*
X54400Y-425000D02*
Y-352046D01*
X332445Y-74000D02*
X360000D01*
X55880Y-696950D02*
X80827Y-721897D01*
X54400Y-352046D02*
X332445Y-74000D01*
X287800Y-508000D02*
X330000Y-465800D01*
Y-425000D01*
X231897Y-721897D02*
X257100Y-747100D01*
X80827Y-721897D02*
X231897D01*
X917790Y-641100D02*
X919100D01*
X902670Y-656220D02*
X917790Y-641100D01*
X752420Y-656220D02*
X902670D01*
X445080Y-703480D02*
X485600Y-744000D01*
X501744Y-447456D02*
X502000Y-447200D01*
X501744Y-468056D02*
Y-447456D01*
X919100Y-641100D02*
X947000Y-613200D01*
X822000Y-318000D02*
X822363D01*
X823363Y-317000D01*
X846000Y-560490D02*
Y-398276D01*
X842900Y-563590D02*
X846000Y-560490D01*
X485374Y-220174D02*
X486300Y-221100D01*
X599000Y-264000D02*
X599543Y-263457D01*
X457000Y-512800D02*
X501744Y-468056D01*
X485374Y-220174D02*
Y-199374D01*
X407000Y-348000D02*
X718000D01*
X842900Y-564900D02*
Y-563590D01*
X33830Y-674900D02*
Y-445570D01*
X476215Y-532015D02*
X628215D01*
X445080Y-703480D02*
Y-525083D01*
X815000Y-109000D02*
X870000Y-164000D01*
X628215Y-532015D02*
X648100Y-551900D01*
X457000Y-512800D02*
X476215Y-532015D01*
X648100Y-551900D02*
X752420Y-656220D01*
X33830Y-445570D02*
X54400Y-425000D01*
X33830Y-674900D02*
X55880Y-696950D01*
D48*
X579000Y-264000D02*
D03*
D49*
X40000Y-315000D02*
D03*
X110000D02*
D03*
X39000Y-161000D02*
D03*
X109000D02*
D03*
D50*
X868300Y-564900D02*
D03*
X511700Y-144900D02*
D03*
X842900Y-641100D02*
D03*
X571900Y-628100D02*
D03*
X460900Y-144900D02*
D03*
X511000Y-667800D02*
D03*
X460200D02*
D03*
X180900Y-670900D02*
D03*
X648100Y-628100D02*
D03*
Y-602700D02*
D03*
Y-577300D02*
D03*
Y-551900D02*
D03*
X571900Y-602700D02*
D03*
Y-577300D02*
D03*
X893700Y-564900D02*
D03*
X842900D02*
D03*
X919100Y-641100D02*
D03*
X893700D02*
D03*
X868300D02*
D03*
X364000Y-508000D02*
D03*
Y-482600D02*
D03*
Y-457200D02*
D03*
Y-431800D02*
D03*
X287800Y-508000D02*
D03*
Y-482600D02*
D03*
Y-457200D02*
D03*
X460200Y-744000D02*
D03*
X485600D02*
D03*
X511000D02*
D03*
X536400D02*
D03*
X485600Y-667800D02*
D03*
X460900Y-221100D02*
D03*
X486300D02*
D03*
X511700D02*
D03*
X537100D02*
D03*
X486300Y-144900D02*
D03*
X180900Y-747100D02*
D03*
X206300D02*
D03*
X231700D02*
D03*
X257100D02*
D03*
X206300Y-670900D02*
D03*
X231700D02*
D03*
D51*
X559300Y-464650D02*
D03*
D52*
X572000D02*
D03*
X584700D02*
D03*
D53*
X571900Y-551900D02*
D03*
X287800Y-431800D02*
D03*
D54*
X919100Y-564900D02*
D03*
X536400Y-667800D02*
D03*
X537100Y-144900D02*
D03*
X257100Y-670900D02*
D03*
D55*
X47000Y-862000D02*
D03*
Y-47000D02*
D03*
X959000Y-39000D02*
D03*
X946000Y-865000D02*
D03*
D56*
X917000Y-114000D02*
D03*
Y-164000D02*
D03*
X300000Y-54000D02*
D03*
X240000Y-74000D02*
D03*
Y-196000D02*
D03*
X360000D02*
D03*
Y-74000D02*
D03*
D57*
X917000Y-214000D02*
D03*
D58*
X77000Y-228000D02*
D03*
M02*
